<?xml version="1.0" standalone="no"?>
<!DOCTYPE svg PUBLIC "-//W3C//DTD SVG 20010904//EN"
 "http://www.w3.org/TR/2001/REC-SVG-20010904/DTD/svg10.dtd">
<svg version="1.0" xmlns="http://www.w3.org/2000/svg"
 width="600.000000pt" height="400.000000pt" viewBox="0 0 600.000000 400.000000"
 preserveAspectRatio="xMidYMid meet">

<g transform="translate(0.000000,400.000000) scale(0.100000,-0.100000)"
fill="#000000" stroke="none">
<path d="M0 2000 l0 -2000 2053 0 c1310 0 2047 4 2037 10 -9 6 -10 10 -3 10 6
0 14 -4 17 -9 9 -14 158 -13 168 1 12 21 10 44 -3 31 -12 -12 -39 -7 -39 8 0
4 7 6 15 3 8 -4 15 -2 15 4 0 9 -75 42 -96 42 -6 0 -11 6 -11 13 0 9 9 12 26
9 43 -7 85 -6 105 3 15 6 17 5 11 -5 -6 -10 -4 -12 11 -6 48 20 57 20 52 0 -3
-11 1 -25 9 -32 20 -19 16 -26 -18 -39 -27 -11 -31 -10 -38 10 -5 12 -7 25 -4
29 2 4 -3 5 -12 2 -12 -5 -13 -10 -5 -20 8 -9 8 -18 1 -33 -6 -11 -11 -23 -11
-26 0 -4 36 -5 79 -3 44 2 77 6 75 9 -5 9 27 21 34 14 3 -3 -1 -5 -8 -5 -7 0
-11 -3 -8 -6 3 -3 15 0 27 7 11 7 24 10 28 6 4 -5 1 -12 -7 -17 -10 -6 127
-10 367 -10 295 0 383 3 387 13 5 9 7 9 12 0 4 -9 96 -12 370 -13 l364 0 0
1035 0 1036 -22 -6 c-21 -6 -107 -91 -108 -107 0 -4 12 -8 27 -10 14 -2 28 -7
30 -13 2 -6 -35 -9 -99 -8 l-103 1 -55 61 c-35 38 -77 72 -114 91 -33 16 -66
36 -75 44 -9 8 -28 18 -43 21 -16 4 -28 11 -28 16 0 12 -56 40 -64 32 -9 -10
-77 59 -72 73 5 14 -21 27 -35 18 -5 -3 -9 0 -9 5 0 6 -5 11 -11 11 -5 0 -7
-4 -4 -10 3 -6 -1 -10 -10 -10 -9 0 -15 -6 -12 -12 2 -7 11 -12 21 -10 9 2 16
-2 16 -8 0 -6 5 -8 10 -5 6 4 29 -9 50 -29 22 -20 45 -36 51 -36 8 0 10 -15 7
-45 -4 -29 -2 -42 5 -38 6 3 7 1 3 -6 -4 -6 -12 -9 -17 -6 -5 4 -10 -1 -10 -9
-3 -30 -4 -34 -13 -43 -5 -4 -6 -3 -2 4 11 20 -10 24 -40 8 -28 -15 -30 -14
-51 12 -23 28 -54 33 -80 12 -7 -7 -13 -5 -16 3 -4 11 -6 10 -6 0 -1 -7 -5
-10 -11 -7 -13 8 -13 -1 1 -28 9 -20 8 -20 -9 2 -14 17 -21 20 -24 10 -3 -10
-6 -9 -11 4 -5 12 -1 17 13 17 10 0 22 5 26 11 3 6 15 9 25 6 14 -4 19 0 19
14 0 20 -15 26 -25 9 -4 -6 -11 -8 -16 -5 -5 4 -9 2 -9 -3 0 -5 -9 -12 -20
-15 -14 -4 -20 0 -21 11 0 14 -2 14 -6 2 -3 -8 -12 -19 -19 -23 -11 -6 -11
-12 -2 -27 8 -12 15 -15 19 -9 4 7 9 4 12 -6 4 -9 3 -14 -1 -12 -16 10 -52
-13 -52 -33 0 -11 -4 -20 -10 -20 -15 0 -5 41 13 55 21 15 22 26 2 19 -11 -5
-14 -1 -9 12 4 13 1 12 -8 -4 -8 -12 -17 -19 -22 -15 -4 4 -4 -1 0 -11 4 -11
3 -17 -2 -14 -5 3 -9 -9 -10 -28 0 -23 4 -34 14 -34 8 0 53 -13 101 -29 47
-16 114 -34 148 -39 33 -6 78 -20 100 -31 110 -58 202 -198 203 -310 0 -22 -1
-23 -17 -9 -30 26 -179 85 -235 94 -80 12 -131 6 -228 -26 -103 -35 -153 -38
-195 -10 -34 23 -55 26 -55 8 0 -7 -7 -22 -16 -33 -13 -18 -14 -17 -9 15 6 37
-8 4 -62 -145 -67 -183 -207 -416 -341 -564 -57 -64 -216 -201 -232 -201 -5 0
-15 -6 -22 -13 -19 -19 -61 -47 -70 -47 -22 0 -2 34 57 96 35 38 64 74 64 79
0 6 -3 4 -6 -2 -2 -7 -9 -13 -14 -13 -4 0 -6 7 -3 15 4 8 14 15 25 15 16 0
129 101 129 116 0 11 -23 50 -43 72 l-21 22 -29 -32 -29 -33 22 33 c12 18 20
38 17 45 -3 7 1 21 9 32 8 10 14 14 14 8 0 -7 -5 -15 -10 -18 -7 -4 -2 -15 12
-27 13 -10 33 -28 46 -39 34 -29 24 -129 -12 -129 -9 0 -20 -10 -27 -22 -6
-13 -30 -43 -53 -68 l-41 -44 45 39 c25 22 60 51 78 64 18 13 35 35 38 48 4
13 23 37 45 53 21 17 41 40 44 51 11 34 -2 33 -20 -1 -9 -18 -19 -30 -21 -27
-3 3 5 26 19 51 13 25 27 42 31 39 4 -4 4 1 0 11 -7 18 -8 18 -22 0 -13 -18
-14 -17 -8 8 4 17 2 28 -4 28 -5 0 -10 -4 -10 -10 0 -5 -4 -10 -10 -10 -5 0
-7 7 -4 15 4 8 12 15 20 15 8 0 14 5 14 10 0 14 -12 12 -38 -6 -24 -17 -27
-13 -12 16 8 15 6 17 -9 13 -13 -3 -18 -11 -14 -21 4 -14 3 -14 -5 -3 -9 12
-13 12 -26 2 -14 -11 -16 -11 -16 3 0 9 6 19 14 22 8 3 17 12 20 19 3 9 0 12
-10 8 -7 -3 -14 -10 -14 -16 0 -6 -3 -8 -6 -4 -4 3 -15 -4 -25 -16 -14 -18
-20 -19 -30 -10 -10 10 -9 17 8 35 11 13 23 30 27 38 5 9 2 8 -7 -2 -8 -10
-19 -18 -24 -18 -6 0 -15 -10 -21 -22 -10 -22 -11 -22 -12 7 -1 17 -4 24 -7
18 -7 -20 -23 -15 -16 5 6 15 5 15 -10 3 -9 -7 -17 -19 -17 -27 0 -7 -4 -15
-9 -18 -5 -4 -7 4 -4 16 4 22 4 22 -11 4 -8 -10 -13 -23 -10 -27 3 -5 1 -9 -4
-9 -6 0 -13 -12 -16 -26 -4 -15 -9 -24 -12 -22 -2 3 0 18 6 33 9 25 9 26 -5
15 -25 -21 -19 9 7 32 19 16 20 21 8 29 -13 8 -13 11 2 23 23 17 13 26 -29 26
-18 0 -33 5 -33 11 0 6 -6 9 -14 6 -7 -3 -19 0 -25 6 -9 9 -14 8 -21 -3 -8
-13 -10 -13 -10 2 0 19 -36 13 -58 -9 -19 -18 -32 -16 -32 5 0 9 -9 -1 -18
-23 -14 -31 -20 -36 -25 -22 -3 9 -11 17 -17 17 -6 0 -9 -4 -6 -8 3 -5 -8 -9
-25 -9 -21 0 -28 4 -25 14 3 7 0 13 -6 13 -6 0 -8 3 -5 6 4 4 13 1 21 -5 9 -7
21 -9 28 -5 7 5 21 7 31 6 27 -5 20 27 -8 34 -25 6 -35 24 -14 24 16 0 69 63
69 83 0 11 -4 15 -12 11 -6 -4 -8 -3 -5 4 13 20 -4 40 -40 47 -24 4 -32 10
-25 17 6 6 23 3 51 -12 42 -21 43 -21 72 -2 26 16 28 20 15 31 -9 7 -21 11
-28 9 -7 -3 -22 4 -32 15 -19 20 -19 20 0 13 62 -26 102 -27 105 -5 1 5 2 13
3 18 0 5 5 13 10 18 5 5 6 3 2 -4 -4 -7 -5 -13 -2 -13 3 0 10 9 16 20 15 28 2
46 -17 23 -13 -17 -14 -17 -9 -1 4 14 0 18 -19 18 -14 0 -25 -4 -25 -10 0 -5
4 -10 9 -10 11 0 9 -18 -5 -42 -7 -12 -13 -14 -24 -7 -13 8 -12 12 5 25 17 13
18 16 5 24 -8 6 -21 8 -28 5 -8 -3 -18 -5 -24 -5 -6 0 -5 -6 2 -15 18 -21 6
-30 -14 -10 -14 15 -21 13 -83 -21 -48 -27 -65 -33 -60 -21 3 9 2 17 -3 17 -6
0 -10 -4 -10 -9 0 -24 -52 -2 -124 51 -66 50 -80 57 -94 46 -13 -11 -14 -11
-8 1 9 14 -8 31 -32 31 -9 0 -11 -7 -7 -20 4 -11 2 -20 -4 -20 -6 0 -11 11
-11 25 0 17 -6 25 -17 26 -25 2 -57 -2 -63 -7 -6 -7 32 -74 42 -74 5 0 7 -4 3
-9 -3 -6 0 -13 7 -18 7 -4 18 -17 24 -28 7 -12 24 -21 43 -23 37 -4 37 -5 10
-42 -15 -19 -20 -37 -16 -56 3 -19 0 -32 -11 -40 -23 -16 -14 -23 33 -25 22
-1 45 -6 51 -11 6 -4 21 -9 35 -11 13 -2 24 -10 24 -18 0 -11 -13 -13 -52 -11
-28 1 -55 -2 -58 -8 -3 -5 -17 -10 -31 -10 -13 0 -24 -4 -24 -8 0 -14 -70 -7
-79 7 -7 11 -11 9 -20 -5 -6 -12 -14 -15 -18 -9 -11 14 -33 17 -33 5 0 -6 -16
-10 -35 -10 -24 0 -35 -5 -35 -14 0 -8 -5 -18 -12 -22 -6 -4 -8 -3 -5 2 3 5
-3 10 -13 10 -14 0 -16 -4 -9 -17 7 -14 20 -16 64 -14 34 3 53 0 50 -5 -4 -6
-30 -10 -59 -10 -49 0 -55 3 -84 39 -42 52 -51 98 -56 295 -4 132 -2 171 9
193 8 15 15 36 15 46 0 24 38 97 50 97 5 0 35 26 65 57 46 48 61 58 92 59 24
0 42 8 54 22 9 12 22 22 28 22 6 0 11 5 11 11 0 14 -42 4 -93 -22 -21 -10 -44
-19 -51 -19 -7 0 -27 -16 -45 -35 -17 -19 -36 -35 -41 -35 -14 0 -13 27 1 36
6 4 9 19 5 36 -4 23 1 40 25 74 31 46 49 49 49 11 1 -20 2 -20 11 -4 6 10 9
23 6 30 -4 14 41 40 55 31 11 -7 -9 -34 -27 -34 -7 0 -12 -10 -11 -22 1 -13 7
-23 16 -23 9 0 14 7 12 18 -2 9 2 17 8 17 6 0 8 5 5 10 -3 6 1 13 9 16 9 3 16
12 16 19 0 7 14 15 31 19 22 4 30 10 25 21 -3 8 -1 15 3 15 19 0 22 -35 4 -48
-13 -10 -14 -13 -3 -11 8 1 28 -3 43 -9 20 -9 34 -9 48 -2 13 8 19 7 19 0 0
-7 6 -10 13 -7 6 2 11 10 10 16 -2 6 2 11 7 11 6 0 10 8 10 18 0 13 2 14 9 3
6 -9 11 -10 15 -3 4 6 14 8 24 5 16 -6 16 -5 -1 14 -17 20 -17 21 8 21 14 0
25 -4 25 -9 0 -4 9 -6 20 -4 12 2 20 -2 20 -10 0 -7 8 -16 18 -18 10 -3 4 -5
-13 -6 -29 -2 -29 -2 -10 -17 11 -8 25 -12 31 -10 7 3 14 -4 17 -14 5 -20 47
-24 47 -5 0 5 5 3 10 -5 8 -13 10 -13 10 2 0 9 10 24 23 33 15 12 18 19 10 22
-15 5 -17 35 -4 49 14 14 24 74 13 74 -13 0 -23 -27 -16 -45 8 -20 -4 -35 -22
-28 -11 4 -14 13 -9 32 4 19 3 22 -5 11 -5 -8 -10 -10 -10 -4 0 7 13 22 30 35
36 29 36 29 10 57 -12 12 -17 22 -11 22 5 0 7 10 4 23 -4 18 -3 19 6 7 6 -8
11 -10 11 -5 0 6 -7 21 -16 33 -8 12 -12 27 -9 32 3 6 -4 10 -17 10 -17 0 -20
-3 -9 -9 10 -7 6 -9 -13 -8 -33 2 -31 32 2 31 12 0 22 3 22 8 0 5 4 6 10 3 5
-3 7 0 5 7 -3 7 -15 20 -28 27 l-22 14 20 -23 20 -23 -23 12 c-18 10 -22 18
-18 42 3 23 1 29 -14 29 -16 0 -17 4 -7 29 l11 30 18 -22 c10 -12 22 -27 28
-34 5 -7 10 -17 10 -23 0 -5 4 -10 10 -10 5 0 17 -17 25 -37 9 -21 21 -41 28
-45 9 -6 9 -10 -2 -17 -9 -6 -10 -11 -2 -15 6 -4 11 -12 11 -18 0 -7 -6 -6
-15 2 -21 17 -19 5 2 -16 13 -13 14 -19 5 -22 -28 -9 -9 -27 31 -30 38 -2 43
0 53 25 7 16 10 45 8 66 -2 20 1 37 6 37 6 0 10 -5 10 -11 0 -6 6 -17 14 -24
12 -12 15 -11 20 8 9 33 7 37 -11 30 -15 -6 -16 -5 -3 9 18 19 36 13 73 -24
18 -17 27 -35 23 -44 -3 -8 -2 -12 4 -9 6 3 10 15 10 27 0 14 5 18 15 14 8 -3
15 -1 15 4 0 6 10 10 23 10 16 0 18 -3 8 -9 -9 -6 -10 -11 -2 -15 6 -4 11 -4
11 0 0 4 9 -3 20 -16 22 -25 26 -40 10 -40 -15 0 11 -52 40 -78 17 -15 34 -22
53 -19 15 2 27 0 27 -5 0 -5 4 -7 9 -4 14 9 -22 75 -42 76 -10 0 -16 4 -12 9
3 5 1 13 -5 16 -6 4 -8 16 -5 28 5 16 4 18 -3 8 -14 -20 -48 14 -57 57 -7 35
-14 39 -34 19 -11 -9 -13 -9 -7 1 4 6 3 12 -3 12 -6 0 -8 7 -5 15 5 11 2 13
-11 9 -14 -6 -16 -3 -10 15 5 17 0 30 -17 48 -12 15 -17 23 -10 19 6 -4 12 -2
12 3 0 6 -9 11 -20 11 -11 0 -20 7 -20 15 0 8 -7 15 -15 15 -8 0 -17 11 -21
24 -7 28 2 49 17 41 8 -6 13 11 12 42 -1 9 5 10 17 3 14 -8 19 -5 22 14 4 17
1 23 -8 19 -11 -4 -10 3 2 32 13 32 13 37 1 32 -8 -3 -20 0 -26 6 -8 8 -11 8
-11 0 0 -6 7 -14 16 -17 23 -9 8 -25 -21 -22 -13 2 -22 -1 -19 -5 3 -5 1 -9
-5 -9 -5 0 -14 8 -20 17 -5 10 -13 14 -17 10 -4 -4 2 -14 13 -22 13 -9 19 -22
16 -33 -6 -25 -60 -27 -88 -4 -11 9 -15 10 -8 3 10 -12 7 -20 -18 -44 -29 -27
-29 -29 -13 -42 14 -10 16 -16 7 -27 -7 -8 -10 -23 -7 -35 7 -25 -27 -37 -52
-19 -14 11 -15 16 -4 35 14 27 12 30 -23 33 -15 1 -27 6 -27 10 0 4 -8 8 -17
8 -15 0 -16 2 -3 10 13 8 12 10 -2 10 -10 0 -18 -6 -18 -12 0 -9 -3 -8 -10 2
-11 17 7 43 25 36 7 -2 18 1 24 7 8 8 11 6 11 -9 0 -15 2 -16 9 -5 5 8 7 21 3
30 -3 9 10 1 28 -17 24 -23 36 -28 41 -20 5 7 3 16 -4 20 -9 6 -8 10 3 18 8 5
10 10 5 10 -6 0 -16 -5 -23 -12 -9 -9 -13 -7 -18 5 -3 9 -14 17 -24 17 -10 0
-21 9 -25 19 -8 25 -31 33 -45 16 -8 -10 -8 -15 1 -20 8 -6 7 -10 -2 -16 -10
-6 -10 -9 -2 -9 7 0 10 -6 7 -14 -9 -24 -53 1 -47 25 4 15 2 18 -11 13 -11 -4
-16 -2 -14 7 2 9 -4 13 -16 11 -16 -3 -18 -1 -8 10 9 11 9 17 0 26 -9 9 -9 15
0 24 20 20 14 30 -10 16 -13 -7 -29 -11 -37 -9 -11 2 -11 0 0 -12 8 -8 19 -12
24 -9 6 3 4 -1 -3 -10 -7 -9 -9 -24 -5 -34 7 -18 6 -18 -11 -2 -9 10 -15 22
-12 27 7 11 -13 28 -34 29 -8 0 -32 3 -53 7 -29 4 -37 2 -31 -7 6 -9 3 -9 -9
1 -17 14 -24 26 -9 17 4 -2 14 -1 22 4 9 5 20 4 28 -3 11 -9 13 -7 10 9 -4 27
45 28 78 1 25 -19 25 -19 31 1 5 21 30 20 45 -2 5 -7 8 -7 8 2 0 17 41 15 68
-4 13 -9 30 -13 38 -10 11 4 14 1 9 -13 -5 -16 -2 -18 14 -14 20 5 20 5 0 27
-11 11 -26 22 -32 22 -7 1 -18 2 -25 3 -8 0 -12 7 -10 13 9 26 -42 54 -62 35
-10 -9 -11 -7 -5 11 4 16 2 22 -8 22 -8 0 -17 6 -20 14 -3 7 -19 16 -36 19
-17 4 -31 13 -31 20 0 9 -10 13 -30 12 -16 -1 -27 2 -24 7 3 4 -1 8 -8 8 -9 0
-9 3 2 10 13 8 12 10 -4 10 -20 0 -13 15 7 15 7 1 11 7 9 14 -1 7 2 10 8 6 5
-3 18 -1 27 5 17 11 17 11 -1 6 -14 -5 -17 -2 -12 10 6 17 1 17 -49 -1 -18 -6
-18 -5 -2 5 22 15 22 25 -5 50 -12 11 -18 20 -12 20 5 0 2 5 -6 10 -8 5 -23 7
-34 4 -13 -5 -16 -3 -11 7 6 9 3 11 -9 6 -14 -6 -17 -3 -12 10 4 10 4 15 1 11
-3 -3 -21 -2 -40 2 -23 5 -36 4 -39 -4 -2 -6 -5 -3 -5 7 -1 21 -4 21 -41 2
-27 -14 -34 -13 -32 7 1 3 -5 12 -13 18 -19 16 -19 34 -1 27 10 -4 13 -1 10 7
-4 10 2 12 19 9 14 -3 28 1 32 8 6 9 -4 10 -45 5 -60 -8 -87 -27 -68 -48 22
-23 21 -47 -2 -41 -11 3 -20 1 -20 -5 0 -16 40 -26 53 -13 6 6 18 11 26 11 12
-1 10 -6 -8 -20 -21 -18 -21 -20 -5 -21 11 -1 25 -1 32 0 6 1 12 -3 12 -9 0
-5 -4 -10 -10 -10 -5 0 -10 -6 -10 -14 0 -18 -31 -15 -50 4 -16 16 -110 22
-121 8 -6 -9 -117 18 -135 33 -9 7 -18 7 -31 -1 -15 -10 -15 -11 -1 -6 11 3
19 -2 23 -13 3 -10 18 -24 33 -31 22 -11 24 -14 10 -17 -10 -3 -18 -12 -18
-21 0 -14 -2 -14 -9 -3 -5 7 -14 10 -20 7 -6 -4 -19 -2 -28 4 -17 11 -17 11 0
6 10 -3 17 0 17 9 0 15 -14 20 -82 30 -27 3 -48 10 -48 16 0 5 6 9 13 9 9 0 9
2 -1 9 -11 7 -12 12 -1 29 7 11 20 22 29 25 21 5 80 -11 80 -23 0 -5 13 -5 32
1 18 5 40 9 48 9 13 0 13 -1 0 -10 -12 -8 -10 -10 8 -10 13 0 21 4 18 9 -3 5
6 9 20 9 17 0 24 -5 20 -14 -3 -7 -1 -16 5 -20 14 -8 59 4 59 16 0 6 -11 8
-25 4 -22 -6 -23 -4 -13 18 9 18 18 23 35 20 18 -3 22 -1 17 12 -3 9 -10 16
-16 16 -5 0 -6 5 -3 10 11 18 -11 11 -30 -10 -15 -17 -19 -18 -32 -4 -9 8 -22
13 -30 9 -11 -4 -13 -1 -9 11 5 12 1 14 -15 9 -15 -5 -19 -4 -15 4 4 6 2 11
-3 11 -6 0 -11 -6 -11 -12 0 -9 -4 -8 -10 2 -6 10 -10 11 -10 3 0 -18 -36 -16
-66 4 -21 13 -32 14 -54 6 -23 -9 -27 -8 -23 3 6 17 55 49 71 46 6 -2 12 1 12
7 0 5 -18 11 -39 13 -22 2 -37 0 -35 -4 7 -11 -29 -15 -54 -6 -33 12 -128 -38
-111 -59 9 -11 9 -17 -1 -26 -8 -8 -14 -8 -16 -2 -2 6 -22 9 -43 7 -21 -2 -47
-2 -57 0 -17 3 -17 4 0 20 9 10 15 22 11 27 -8 14 -35 2 -35 -16 0 -9 -16 -31
-36 -49 l-36 -34 -19 22 c-20 23 -20 23 -10 1 16 -31 13 -41 -5 -18 -15 19
-16 19 -29 1 -7 -10 -18 -15 -24 -12 -5 4 -12 2 -16 -4 -3 -5 2 -10 12 -11 14
0 15 -2 3 -6 -8 -4 -20 -13 -27 -22 -8 -10 -12 -11 -13 -4 0 6 4 15 10 18 6 4
5 11 -3 20 -8 9 -16 10 -24 3 -7 -5 -18 -8 -25 -5 -8 3 -3 9 12 15 17 7 29 6
39 -2 12 -9 13 -8 8 7 -4 10 -7 21 -7 23 0 2 -7 4 -15 4 -8 0 -15 -5 -15 -11
0 -5 -5 -7 -10 -4 -6 4 -17 1 -25 -5 -8 -7 -20 -10 -27 -7 -8 4 -7 6 5 6 9 1
17 6 17 11 0 6 7 10 15 10 8 0 15 5 15 10 0 6 -8 10 -17 10 -34 0 5 22 41 23
l36 1 -21 22 -21 23 33 -4 c19 -1 46 -6 61 -10 20 -5 29 -2 36 11 10 18 11 18
33 -1 16 -14 21 -15 17 -5 -5 13 5 14 63 12 58 -3 68 -1 63 11 -7 20 33 47 73
50 31 2 39 21 20 45 -15 19 0 27 20 11 10 -9 30 -20 45 -27 20 -8 26 -16 21
-28 -5 -14 -3 -14 17 2 12 11 29 26 38 34 10 10 17 11 19 3 5 -13 43 -5 43 9
0 6 9 8 19 5 13 -3 23 3 32 20 13 23 49 29 50 8 1 -18 19 -45 31 -45 7 0 6 5
-2 15 -20 24 11 19 71 -12 36 -19 54 -24 56 -16 3 8 15 10 34 6 34 -7 39 9 7
25 -21 10 -19 11 17 11 27 1 36 -2 28 -10 -7 -7 -3 -19 15 -39 25 -28 26 -29
39 -10 8 11 23 20 34 20 15 0 19 5 14 19 -5 15 -1 18 20 13 25 -4 46 -22 26
-22 -6 0 -7 -7 -4 -17 4 -11 3 -14 -5 -9 -7 4 -12 3 -12 -3 0 -16 35 -31 58
-24 16 4 22 1 22 -12 0 -9 9 -19 20 -22 13 -3 20 -14 20 -28 0 -18 4 -22 20
-18 11 3 17 9 14 15 -3 5 5 6 19 3 17 -5 26 -2 30 9 8 20 31 21 47 1 10 -12
10 -15 -4 -15 -9 0 -16 -5 -16 -10 0 -17 29 -23 46 -9 13 10 16 9 21 -9 6 -26
19 -28 31 -6 10 19 36 9 26 -9 -3 -7 0 -5 8 3 14 16 44 15 66 -2 9 -8 12 -6
12 6 0 15 2 15 24 -1 13 -10 22 -21 19 -25 -7 -12 57 -9 91 3 41 15 65 48 59
81 -6 34 -143 166 -205 199 -12 7 -29 18 -36 26 -7 7 -22 13 -32 13 -10 0 -20
3 -22 8 -4 10 -90 52 -105 52 -7 0 -13 4 -13 10 0 5 -3 9 -7 8 -10 -3 -78 19
-123 39 -74 34 -179 53 -338 63 -90 5 -178 7 -195 4 -28 -5 -30 -4 -13 7 14 8
67 10 195 6 194 -6 291 -23 476 -82 124 -39 137 -42 109 -19 -19 15 -19 15 3
11 16 -4 20 -1 16 11 -5 11 -2 14 11 9 10 -4 15 -3 11 3 -3 6 -2 10 4 10 5 0
16 14 25 31 16 33 12 87 -8 104 -7 6 -21 31 -32 57 l-19 48 -1862 0 -1863 0 0
-2000z m1258 1553 c-25 -27 -47 -31 -27 -6 12 15 12 16 -5 10 -14 -6 -16 -5
-8 5 6 7 22 13 36 13 l25 0 -21 -22z m92 -31 c0 -10 -50 -35 -57 -28 -3 2 8
11 24 20 34 18 33 18 33 8z m40 -153 c0 -14 -17 -10 -23 5 -4 10 -1 13 9 9 7
-3 14 -9 14 -14z m1342 -41 c-7 -7 -12 -8 -12 -2 0 6 3 14 7 17 3 4 9 5 12 2
2 -3 -1 -11 -7 -17z m-1319 -2 c4 -10 -2 -13 -18 -12 -17 1 -21 4 -13 14 14
16 25 15 31 -2z m1187 -36 c0 -5 -2 -10 -4 -10 -3 0 -8 5 -11 10 -3 6 -1 10 4
10 6 0 11 -4 11 -10z m-1185 -11 c4 -6 5 -12 2 -15 -7 -7 -37 7 -37 17 0 13
27 11 35 -2z m1827 -9 c19 -21 5 -41 -15 -21 -6 6 -7 11 -3 11 5 0 3 7 -4 15
-7 8 -8 15 -3 15 5 0 16 -9 25 -20z m-1005 -35 c-1 0 -13 -9 -26 -20 -14 -11
-21 -14 -17 -7 4 7 1 12 -8 12 -9 0 -16 5 -16 10 0 6 9 10 19 10 11 0 23 5 27
11 4 8 9 7 15 -2 4 -7 7 -14 6 -14z m1093 -6 c0 -6 -7 -9 -15 -5 -8 3 -15 1
-15 -5 0 -6 -5 -7 -11 -3 -8 4 -7 9 2 15 19 12 39 11 39 -2z m-1170 -6 c0 -5
-17 -23 -37 -41 -30 -26 -33 -32 -15 -27 16 5 22 2 22 -9 0 -18 16 -22 22 -5
3 9 11 8 28 -1 15 -8 20 -15 12 -18 -6 -2 -9 -8 -6 -14 4 -6 -1 -8 -15 -3 -11
3 -35 7 -52 7 -17 1 -33 7 -36 14 -2 7 -10 11 -17 8 -7 -3 -19 2 -26 11 -11
13 -9 15 9 15 12 0 21 6 21 16 0 8 4 12 10 9 5 -3 7 0 5 7 -4 9 6 18 27 24 44
15 48 15 48 7z m150 -3 c0 -5 -4 -10 -10 -10 -5 0 -10 5 -10 10 0 6 5 10 10
10 6 0 10 -4 10 -10z m1058 -2 c8 -10 3 -13 -21 -15 -30 -2 -31 -1 -13 12 24
18 21 18 34 3z m-2008 -8 c0 -5 -2 -10 -4 -10 -3 0 -8 5 -11 10 -3 6 -1 10 4
10 6 0 11 -4 11 -10z m1442 -29 c-7 -19 -34 -51 -43 -51 -10 0 -5 34 6 43 6 5
-2 6 -17 3 -16 -4 -28 -2 -28 4 0 5 9 10 20 10 11 0 20 5 20 11 0 5 4 8 9 4 5
-3 13 0 17 6 9 16 24 -10 16 -30z m347 -38 c17 -18 6 -30 -13 -14 -8 7 -20 10
-26 6 -5 -3 -10 0 -10 8 0 18 31 18 49 0z m-1139 -3 c0 -5 -5 -10 -11 -10 -5
0 -7 5 -4 10 3 6 8 10 11 10 2 0 4 -4 4 -10z m525 -8 c6 -4 11 -22 11 -39 2
-29 -1 -32 -24 -30 -14 1 -27 9 -30 19 -2 10 -13 18 -23 18 -11 0 -19 5 -19
11 0 5 5 7 10 4 6 -3 10 1 10 9 0 17 46 22 65 8z m520 -2 c3 -5 1 -10 -4 -10
-6 0 -11 5 -11 10 0 6 2 10 4 10 3 0 8 -4 11 -10z m187 -22 c-7 -7 -12 -8 -12
-2 0 6 3 14 7 17 3 4 9 5 12 2 2 -3 -1 -11 -7 -17z m-1297 -8 c4 -6 1 -18 -7
-27 -11 -15 -11 -16 5 -10 24 9 22 -9 -4 -26 -15 -11 -17 -17 -8 -22 6 -5 15
-1 21 8 4 9 15 23 23 31 8 8 15 19 15 24 0 12 47 25 60 17 19 -11 10 -25 -15
-25 -14 0 -28 -7 -31 -15 -4 -8 -12 -15 -20 -15 -8 0 -14 -6 -14 -12 -1 -17
-38 -43 -75 -53 -27 -6 -28 -8 -10 -15 17 -6 14 -9 -18 -15 -21 -4 -41 -5 -44
-2 -3 4 -20 -5 -38 -18 -17 -14 -35 -25 -39 -25 -3 0 -24 -11 -46 -25 -42 -26
-70 -32 -70 -14 0 5 4 8 9 5 4 -3 30 16 56 41 30 30 57 48 74 49 14 0 38 2 52
2 32 2 58 47 33 56 -9 3 -12 11 -9 16 5 8 11 8 20 0 11 -9 12 -7 8 9 -3 12
-14 21 -24 21 -11 0 -19 5 -19 10 0 6 9 10 20 10 11 0 20 -5 20 -11 0 -6 6 -9
13 -6 6 2 11 10 10 16 -2 6 4 11 12 11 8 0 15 5 15 10 0 13 17 13 25 0z m155
-6 c0 -2 -7 -4 -15 -4 -8 0 -15 4 -15 10 0 5 7 7 15 4 8 -4 15 -8 15 -10z
m-1306 -9 c-4 -8 -8 -15 -10 -15 -2 0 -4 7 -4 15 0 8 4 15 10 15 5 0 7 -7 4
-15z m2411 -17 c-1 -15 -9 -24 -23 -26 -12 -2 -22 1 -22 7 0 6 -7 11 -15 11
-8 0 -15 5 -15 11 0 5 4 7 10 4 5 -3 18 -1 27 4 28 16 40 13 38 -11z m-813
-20 c8 -24 -37 -37 -78 -23 -30 10 -34 14 -18 18 10 4 31 5 46 3 15 -2 25 1
22 5 -3 5 1 9 10 9 8 0 16 -6 18 -12z m-1402 -15 c0 -5 -5 -15 -10 -23 -7 -11
-10 -11 -10 -2 0 7 -4 10 -10 7 -6 -3 -7 1 -4 9 6 16 34 23 34 9z m1315 -33
c3 -5 1 -10 -4 -10 -6 0 -11 5 -11 10 0 6 2 10 4 10 3 0 8 -4 11 -10z m-509
-15 c-36 -19 -42 -19 -26 0 7 8 22 15 34 15 18 0 17 -2 -8 -15z m488 -14 c3
-5 -5 -11 -19 -13 -24 -5 -32 2 -18 15 9 10 31 9 37 -2z m141 -1 c3 -5 1 -10
-5 -10 -7 0 -10 -6 -7 -12 2 -7 10 -12 16 -10 7 1 21 -3 33 -9 20 -11 20 -12
3 -22 -14 -7 -20 -7 -23 1 -2 7 -10 12 -17 12 -21 0 -98 37 -88 43 4 2 20 3
36 1 15 -1 27 2 27 7 0 12 17 12 25 -1z m475 -21 c0 -14 -16 -11 -29 5 -10 12
-8 13 8 9 12 -3 21 -9 21 -14z m630 14 c0 -15 -34 -33 -57 -31 -20 2 -28 -1
-27 -12 1 -20 -55 -22 -74 -3 -8 8 -13 16 -10 18 9 9 87 22 117 19 18 -2 30 0
27 4 -3 5 1 9 9 9 8 0 15 -2 15 -4z m76 -47 c1 -11 -2 -16 -11 -13 -7 3 -18 0
-24 -6 -8 -8 -11 -7 -11 6 0 21 -4 21 -36 1 -13 -9 -27 -14 -31 -10 -3 3 -1 6
6 6 7 0 9 5 5 12 -5 7 -2 9 7 6 17 -7 37 13 31 30 -3 10 3 10 29 0 18 -8 33
-22 35 -32z m-258 16 c6 -18 -15 -14 -22 4 -4 10 -1 14 6 12 6 -2 14 -10 16
-16z m-993 -2 c8 -13 -5 -13 -25 0 -13 8 -13 10 2 10 9 0 20 -4 23 -10z m1365
-26 c0 -8 -4 -12 -10 -9 -5 3 -10 10 -10 16 0 5 5 9 10 9 6 0 10 -7 10 -16z
m-46 -3 c4 -5 -3 -7 -14 -4 -23 6 -26 13 -6 13 8 0 17 -4 20 -9z m-1184 -25
c0 -11 -19 -15 -25 -6 -3 5 1 10 9 10 9 0 16 -2 16 -4z m920 -6 c0 -5 -4 -10
-10 -10 -5 0 -10 5 -10 10 0 6 5 10 10 10 6 0 10 -4 10 -10z m-790 -90 c0 -5
-5 -10 -10 -10 -6 0 -3 -12 7 -27 l17 -28 -23 23 c-12 12 -27 22 -34 22 -7 0
-3 7 7 15 23 17 36 19 36 5z m805 -10 c3 -5 1 -10 -4 -10 -6 0 -11 5 -11 10 0
6 2 10 4 10 3 0 8 -4 11 -10z m-1955 -45 c0 -16 -6 -25 -15 -25 -18 0 -18 5
-5 31 14 26 20 24 20 -6z m35 15 c3 -5 1 -10 -4 -10 -6 0 -11 5 -11 10 0 6 2
10 4 10 3 0 8 -4 11 -10z m1086 -9 c13 -11 20 -23 16 -28 -5 -4 -14 0 -21 10
-7 9 -18 17 -24 17 -6 0 -14 5 -17 10 -11 17 22 11 46 -9z m1059 -31 c0 -5 -4
-10 -10 -10 -5 0 -10 5 -10 10 0 6 5 10 10 10 6 0 10 -4 10 -10z m365 -10 c3
-5 1 -10 -4 -10 -6 0 -11 5 -11 10 0 6 2 10 4 10 3 0 8 -4 11 -10z m-2555 -4
c0 -3 -4 -8 -10 -11 -5 -3 -10 -1 -10 4 0 6 5 11 10 11 6 0 10 -2 10 -4z m50
0 c0 -2 -7 -9 -15 -16 -12 -10 -15 -10 -15 4 0 9 7 16 15 16 8 0 15 -2 15 -4z
m2308 -89 c-15 -31 -15 -31 -14 1 1 19 5 28 13 25 10 -4 10 -10 1 -26z m-2359
-57 c-13 -16 -24 -28 -26 -26 -8 8 21 56 34 56 10 0 7 -9 -8 -30z m2401 -10
c0 -5 -2 -10 -4 -10 -3 0 -8 5 -11 10 -3 6 -1 10 4 10 6 0 11 -4 11 -10z
m-205 -10 c3 -5 -1 -10 -9 -10 -9 0 -16 5 -16 10 0 6 4 10 9 10 6 0 13 -4 16
-10z m80 -10 c3 -6 -4 -10 -17 -10 -18 0 -20 2 -8 10 19 12 18 12 25 0z m-90
-10 c19 -8 19 -9 -2 -9 -12 -1 -25 4 -28 9 -7 12 2 12 30 0z m457 -37 c-5 -10
-7 -24 -5 -30 3 -8 -4 -13 -17 -13 -19 0 -20 2 -10 15 7 8 9 15 4 15 -8 1 25
30 33 30 2 0 0 -8 -5 -17z m-468 -18 c3 -8 1 -15 -4 -15 -6 0 -10 7 -10 15 0
8 2 15 4 15 2 0 6 -7 10 -15z m543 -17 c-3 -8 -6 -5 -6 6 -1 11 2 17 5 13 3
-3 4 -12 1 -19z m-2759 -107 c-22 -72 -46 -46 -28 30 12 47 13 49 26 30 12
-17 12 -27 2 -60z m2365 44 c-3 -9 -8 -14 -10 -11 -3 3 -2 9 2 15 9 16 15 13
8 -4z m-682 -28 c-1 -12 -15 -9 -19 4 -3 6 1 10 8 8 6 -3 11 -8 11 -12z m579
-12 c0 -8 -4 -15 -10 -15 -5 0 -10 7 -10 15 0 8 5 15 10 15 6 0 10 -7 10 -15z
m573 -15 c3 -11 1 -20 -4 -20 -5 0 -9 9 -9 20 0 11 2 20 4 20 2 0 6 -9 9 -20z
m-588 -40 c4 -6 10 -8 15 -5 5 3 11 1 15 -5 3 -5 -3 -10 -14 -10 -12 0 -24 0
-28 -1 -5 0 -9 7 -11 15 -4 18 13 22 23 6z m87 -23 c10 -20 10 -21 -5 -8 -16
12 -21 9 -18 -11 1 -11 -17 -10 -23 1 -3 5 1 12 10 15 9 4 14 13 10 22 -8 22
12 7 26 -19z m-2352 -13 c0 -8 6 -14 13 -14 7 0 23 -9 35 -20 12 -12 30 -20
39 -18 10 2 18 -1 18 -7 0 -5 4 -15 8 -22 4 -6 4 -18 1 -26 -8 -22 7 -27 49
-17 35 8 52 -2 23 -13 -19 -7 -5 -73 19 -91 15 -11 16 -14 2 -27 -15 -16 -21
-73 -6 -63 15 9 27 -60 12 -74 -19 -20 -16 -25 12 -19 27 5 47 -16 38 -40 -5
-14 27 -54 39 -47 4 3 4 14 -2 24 -7 13 -7 21 0 25 5 3 10 18 10 33 0 20 3 23
12 14 9 -9 9 -18 0 -37 -14 -31 -9 -43 24 -55 32 -13 30 -26 -6 -42 -23 -10
-30 -19 -30 -40 0 -28 15 -38 23 -15 2 6 6 -2 9 -20 2 -18 1 -30 -4 -27 -4 3
-8 1 -8 -5 0 -5 5 -13 10 -16 6 -4 8 -10 5 -15 -10 -16 36 -52 72 -55 19 -2
32 -1 29 2 -5 5 18 33 28 33 12 0 35 -60 30 -75 -4 -9 1 -21 11 -29 17 -12 17
-14 -1 -45 -22 -37 -39 -35 -38 4 0 16 -8 37 -18 47 -10 10 -18 14 -18 9 0 -6
4 -12 9 -15 5 -3 9 -16 9 -29 0 -22 56 -115 78 -129 6 -4 19 -26 29 -48 15
-34 16 -43 6 -50 -8 -4 -10 -13 -7 -19 4 -6 0 -11 -8 -11 -19 0 -21 -16 -3
-23 7 -3 4 -6 -7 -6 -15 -1 -17 4 -12 29 6 35 -9 41 -18 8 -6 -22 -6 -22 -25
8 -11 18 -25 35 -31 39 -8 5 -8 1 1 -12 9 -15 9 -25 1 -39 -11 -18 -11 -18
-12 4 0 12 -6 22 -14 22 -19 0 -29 -17 -16 -25 13 -8 13 -35 0 -35 -5 0 -9 5
-7 11 1 6 -4 14 -10 16 -7 3 -13 0 -13 -6 0 -6 -7 -11 -16 -11 -10 0 -14 6
-11 14 4 10 1 13 -9 9 -7 -3 -14 0 -14 6 0 6 -8 11 -19 11 -10 0 -30 9 -43 20
-14 10 -29 16 -33 12 -5 -4 -5 -2 -1 5 7 12 -38 108 -55 119 -14 9 -11 -5 16
-58 25 -50 33 -76 15 -48 -8 12 -12 12 -18 2 -13 -20 -52 17 -102 95 -24 37
-55 80 -68 95 -13 14 -23 29 -23 32 1 3 -10 27 -23 54 -35 69 -76 207 -76 255
l0 41 30 -34 c25 -29 30 -31 29 -15 -3 43 2 50 17 25 14 -24 14 -24 8 15 -4
22 -11 51 -15 63 -5 13 -6 28 -3 34 3 5 -4 20 -16 33 -20 22 -22 64 -3 52 5
-3 8 36 8 86 1 111 13 209 26 202 5 -4 9 -13 9 -21z m421 -4 c24 -13 25 -32 2
-29 -31 3 -36 -1 -23 -16 8 -9 9 -15 2 -15 -11 0 -42 38 -42 51 0 4 8 10 18
12 9 3 18 5 20 6 2 0 12 -4 23 -9z m1204 -10 c7 0 16 6 18 13 3 6 6 -3 6 -20
1 -29 -2 -33 -23 -33 -30 0 -40 13 -30 43 4 12 9 17 11 10 3 -7 11 -13 18 -13z
m735 -20 c0 -5 -4 -10 -9 -10 -6 0 -13 5 -16 10 -3 6 1 10 9 10 9 0 16 -4 16
-10z m-1973 -64 c17 -17 20 -25 11 -34 -9 -9 -8 -12 5 -12 25 0 21 -19 -6 -25
-22 -6 -53 -42 -44 -51 2 -3 16 0 30 5 22 8 25 8 20 -5 -3 -9 3 -21 16 -30 23
-16 28 -40 10 -46 -8 -3 -8 -10 2 -25 17 -27 5 -41 -21 -25 -11 7 -29 12 -40
12 -13 0 -20 7 -20 20 0 12 -7 20 -17 20 -12 0 -14 3 -6 11 8 8 8 20 1 40 -8
24 -13 27 -24 18 -20 -17 -29 -4 -25 37 2 22 -2 34 -10 34 -15 0 -59 39 -59
52 0 5 15 8 33 6 27 -3 32 0 29 17 -2 16 6 23 30 31 28 9 35 7 48 -9 8 -11 25
-29 37 -41z m3597 25 c-2 -3 -12 3 -22 13 -16 17 -16 18 5 5 12 -7 20 -15 17
-18z m-2396 -31 c24 0 25 -1 7 -14 -17 -12 -16 -13 10 -20 16 -4 32 -3 38 3 8
8 7 11 -1 11 -7 0 -12 7 -12 15 0 9 10 15 26 15 15 0 23 -4 19 -11 -4 -6 1
-17 11 -24 14 -11 16 -17 7 -23 -14 -9 -5 -26 19 -35 14 -5 15 -10 4 -41 -17
-49 -20 -51 -55 -30 -35 21 -38 29 -14 43 10 5 15 13 10 17 -4 4 -15 0 -25 -9
-31 -28 -49 -20 -76 36 -14 28 -31 59 -37 68 -7 9 -9 24 -5 34 6 15 9 14 27
-9 13 -16 30 -26 47 -26z m-268 26 c0 -8 -4 -17 -8 -20 -4 -2 -8 4 -8 15 0 10
4 19 8 19 4 0 8 -6 8 -14z m825 -16 c3 -6 -1 -7 -9 -4 -18 7 -21 14 -7 14 6 0
13 -4 16 -10z m-685 -13 c0 -7 -10 -18 -21 -26 -19 -11 -21 -11 -16 2 3 8 0
20 -6 26 -8 8 -4 11 16 11 15 0 27 -6 27 -13z m-71 -23 c2 -2 2 -7 -2 -10 -8
-9 -47 6 -47 17 0 9 37 3 49 -7z m-704 -4 c-3 -5 -14 -10 -23 -9 -14 0 -13 2
3 9 27 11 27 11 20 0z m870 -67 c6 -21 3 -23 -38 -23 -50 0 -96 28 -82 50 6
10 11 10 20 -4 11 -14 13 -12 20 16 4 18 9 27 12 21 8 -20 33 -16 27 5 -3 9 3
4 14 -13 11 -16 23 -40 27 -52z m199 56 c-3 -5 -10 -7 -15 -3 -5 3 -7 10 -3
15 3 5 10 7 15 3 5 -3 7 -10 3 -15z m-1529 -19 c-3 -5 -11 -10 -16 -10 -6 0
-7 5 -4 10 3 6 11 10 16 10 6 0 7 -4 4 -10z m-285 -51 c0 -5 -4 -9 -10 -9 -5
0 -10 7 -10 16 0 8 5 12 10 9 6 -3 10 -10 10 -16z m1285 12 c3 -5 1 -12 -5
-16 -5 -3 -10 1 -10 9 0 18 6 21 15 7z m90 -1 c-3 -5 -11 -10 -16 -10 -6 0 -7
5 -4 10 3 6 11 10 16 10 6 0 7 -4 4 -10z m-885 -20 c0 -5 -5 -10 -11 -10 -5 0
-7 5 -4 10 3 6 8 10 11 10 2 0 4 -4 4 -10z m960 -11 c0 -5 -4 -9 -10 -9 -5 0
-10 7 -10 16 0 8 5 12 10 9 6 -3 10 -10 10 -16z m2520 17 c0 -9 -30 -14 -35
-6 -4 6 3 10 14 10 12 0 21 -2 21 -4z m-2378 -25 c62 2 121 -22 145 -57 18
-29 10 -74 -23 -124 -24 -37 -63 -145 -68 -192 -4 -43 -11 -42 -47 4 -18 24
-50 59 -71 78 -26 24 -38 44 -38 62 0 16 -9 34 -24 46 -29 22 -44 102 -19 102
7 0 13 -7 13 -15 0 -8 5 -15 11 -15 6 0 9 7 5 15 -3 8 -1 15 4 15 6 0 10 -4
10 -10 0 -14 13 -12 36 5 16 12 17 16 5 24 -11 7 -12 13 -3 23 9 11 8 20 -5
39 -14 20 -14 22 -2 12 9 -7 40 -12 71 -12z m2115 13 c-3 -3 -12 -4 -19 -1 -8
3 -5 6 6 6 11 1 17 -2 13 -5z m-2685 -26 c-7 -7 -12 -8 -12 -2 0 6 3 14 7 17
3 4 9 5 12 2 2 -3 -1 -11 -7 -17z m355 -15 c-17 -17 -57 -9 -57 12 0 17 30 24
54 12 16 -8 17 -11 3 -24z m38 -3 c3 -5 -1 -10 -10 -10 -9 0 -13 5 -10 10 3 6
8 10 10 10 2 0 7 -4 10 -10z m-265 -25 c-13 -16 -50 -26 -50 -14 0 5 6 9 14 9
8 0 17 7 20 16 3 8 11 12 16 9 8 -5 8 -11 0 -20z m300 15 c0 -5 -5 -10 -11
-10 -5 0 -7 5 -4 10 3 6 8 10 11 10 2 0 4 -4 4 -10z m-1140 -10 c0 -5 -4 -10
-10 -10 -5 0 -10 5 -10 10 0 6 5 10 10 10 6 0 10 -4 10 -10z m778 -37 c2 -8
-5 -13 -17 -13 -12 0 -21 6 -21 16 0 18 31 15 38 -3z m-518 -3 c0 -5 -2 -10
-4 -10 -3 0 -8 5 -11 10 -3 6 -1 10 4 10 6 0 11 -4 11 -10z m840 -21 c0 -11
-4 -17 -10 -14 -5 3 -10 15 -10 26 0 11 5 17 10 14 6 -3 10 -15 10 -26z m-695
-2 c9 3 22 -1 31 -8 13 -11 17 -10 25 4 13 23 26 21 32 -4 4 -14 10 -18 19
-13 18 12 68 14 68 3 0 -5 11 -15 25 -21 18 -8 22 -14 15 -24 -8 -8 -7 -13 2
-17 7 -2 10 -7 7 -11 -4 -4 -23 3 -42 14 -29 17 -45 20 -81 15 -31 -5 -46 -4
-46 4 0 6 6 11 13 12 6 0 2 4 -11 9 -16 7 -37 4 -75 -10 -29 -11 -60 -20 -69
-20 -16 0 -15 3 4 25 15 17 24 21 29 14 4 -7 14 -9 25 -4 18 8 18 8 2 12 -10
3 -18 13 -18 24 0 18 2 19 15 5 9 -8 22 -13 30 -9z m492 -3 c25 -19 37 -23 47
-15 10 8 18 6 32 -10 15 -16 16 -21 4 -19 -36 5 -49 -1 -55 -30 -4 -16 -10
-30 -15 -30 -5 0 -4 14 1 32 5 17 6 34 4 37 -7 6 -34 -31 -35 -47 0 -8 -9 -10
-27 -6 -22 5 -26 4 -16 -6 6 -7 32 -15 57 -17 38 -5 46 -3 46 11 0 13 4 15 19
6 11 -5 27 -7 35 -4 10 4 16 1 16 -7 0 -12 2 -12 9 0 6 10 32 -16 97 -99 98
-123 125 -170 154 -263 34 -106 22 -217 -23 -217 -10 0 -21 -9 -24 -20 -6 -23
-19 -26 -26 -7 -4 9 -8 9 -15 -2 -9 -13 -13 -13 -27 -1 -15 12 -16 11 -10 -16
5 -23 4 -26 -5 -14 -9 11 -13 12 -17 3 -9 -22 -20 -14 -42 30 -16 32 -21 37
-21 19 0 -12 -7 -25 -15 -28 -8 -4 -15 -12 -15 -20 0 -8 -4 -14 -8 -14 -5 0
-7 14 -4 30 3 23 0 30 -12 30 -10 0 -16 -9 -16 -25 0 -18 -4 -23 -15 -19 -8 4
-21 1 -29 -5 -7 -6 -36 -12 -65 -12 -36 -1 -51 -6 -51 -15 0 -18 -12 -18 -53
0 -19 7 -44 13 -58 12 -13 -1 -27 3 -31 8 -4 6 -11 0 -16 -14 -9 -23 -9 -23
-20 10 -13 37 -12 41 62 110 38 36 39 38 27 68 -15 35 -8 66 12 60 6 -3 15
-18 18 -34 l7 -29 1 30 c1 20 -6 34 -19 43 -11 7 -20 17 -20 23 0 5 5 7 10 4
6 -3 10 0 10 9 0 8 -6 16 -12 19 -9 3 -3 14 15 31 24 22 27 29 16 42 -10 12
-8 17 7 28 10 8 23 11 29 8 5 -4 2 -8 -7 -10 -20 -4 -22 -10 -9 -31 14 -22 44
-24 36 -3 -4 9 -8 28 -10 41 -1 13 -7 26 -12 30 -14 9 -12 41 3 41 29 0 28 93
-1 114 -10 7 -15 18 -12 23 9 14 -26 23 -47 11 -12 -7 -16 -5 -16 7 0 9 9 15
23 15 20 1 20 2 5 11 -22 13 -24 33 -2 25 12 -5 15 -2 10 11 -6 14 -4 15 5 6
18 -18 62 5 55 30 -2 10 2 21 10 24 8 3 11 9 8 14 -10 17 9 9 43 -17z m-643 5
c14 -7 26 -23 29 -38 6 -32 -1 -47 -16 -32 -16 16 -58 13 -72 -6 -7 -9 -17
-13 -23 -9 -15 9 -15 26 0 26 19 0 48 31 48 52 0 21 1 21 34 7z m406 -50 c0
-5 -4 -9 -10 -9 -5 0 -10 7 -10 16 0 8 5 12 10 9 6 -3 10 -10 10 -16z m-215
-19 c3 -5 -1 -10 -9 -10 -8 0 -18 5 -21 10 -3 6 1 10 9 10 8 0 18 -4 21 -10z
m255 -12 c0 -4 -10 -8 -22 -8 -20 0 -20 -1 -4 -19 10 -11 16 -25 14 -32 -3
-10 -48 52 -48 66 0 2 14 3 30 3 17 -1 30 -5 30 -10z m-1579 -45 c13 -16 12
-17 -3 -4 -10 7 -18 15 -18 17 0 8 8 3 21 -13z m-173 -28 c-3 -3 -9 2 -12 12
-6 14 -5 15 5 6 7 -7 10 -15 7 -18z m187 -24 c3 -5 2 -12 -3 -15 -5 -3 -9 1
-9 9 0 17 3 19 12 6z m-169 -19 c-9 -15 10 -31 32 -25 12 3 19 9 16 14 -8 14
24 10 56 -6 37 -19 38 -24 5 -20 -14 1 -25 -2 -25 -6 0 -15 -68 -10 -84 7 -18
18 -21 44 -5 44 5 0 8 -4 5 -8z m120 -84 c48 -55 78 -102 60 -95 -10 4 -15 3
-11 -3 15 -24 -42 3 -68 33 -9 11 -19 18 -22 15 -3 -3 4 -13 15 -23 31 -28 24
-37 -15 -21 -19 8 -35 11 -35 7 0 -4 19 -14 43 -21 23 -7 53 -17 65 -23 l24
-11 -21 -10 c-15 -7 -38 -4 -75 7 l-53 17 -6 53 c-7 73 3 87 69 96 6 0 19 -9
30 -21z m104 -7 c16 -31 12 -35 -8 -10 -12 14 -25 20 -35 16 -17 -7 -13 -37 5
-37 6 0 4 7 -3 17 -12 14 -12 16 1 11 9 -3 14 -15 12 -28 -1 -13 3 -27 10 -32
9 -5 9 -8 2 -8 -7 0 -23 15 -36 33 -43 56 -43 57 1 57 30 0 43 -5 51 -19z m60
-35 c0 -6 -7 -1 -15 10 -8 10 -15 23 -15 28 0 6 7 1 15 -10 8 -10 15 -23 15
-28z m2494 18 c5 -14 4 -15 -9 -4 -17 14 -19 20 -6 20 5 0 12 -7 15 -16z m111
-4 c-3 -5 -11 -10 -16 -10 -6 0 -7 5 -4 10 3 6 11 10 16 10 6 0 7 -4 4 -10z
m-1721 -15 c-7 -16 -24 -21 -24 -6 0 8 7 13 27 20 1 1 0 -6 -3 -14z m166 -20
c0 -3 -9 -15 -19 -27 l-20 -21 2 21 c0 11 5 18 9 16 4 -3 8 0 8 5 0 6 5 11 10
11 6 0 10 -2 10 -5z m1635 -23 c-3 -3 -11 0 -18 7 -9 10 -8 11 6 5 10 -3 15
-9 12 -12z m-1595 -7 c7 -8 18 -15 25 -15 15 0 27 -61 14 -74 -5 -6 -9 -29 -9
-52 0 -34 -5 -47 -26 -63 -30 -24 -52 -17 -74 23 -12 23 -11 31 4 62 16 34 16
38 0 55 -17 18 -16 21 11 49 33 34 38 36 55 15z m160 -6 c0 -5 -7 -9 -15 -9
-15 0 -20 12 -9 23 8 8 24 -1 24 -14z m1316 -17 c-4 -3 -14 2 -24 12 -16 18
-16 18 6 6 13 -6 21 -14 18 -18z m34 18 c0 -5 -4 -10 -10 -10 -5 0 -10 5 -10
10 0 6 5 10 10 10 6 0 10 -4 10 -10z m333 3 c3 -5 -6 -9 -20 -10 -19 -1 -22 1
-12 8 17 11 26 11 32 2z m-255 -18 c-2 -1 -21 -5 -43 -8 l-40 -6 30 13 c16 8
35 11 43 9 7 -3 12 -7 10 -8z m-1500 -25 c-13 -20 -38 -28 -38 -12 0 12 23 32
37 32 11 0 11 -4 1 -20z m70 4 c19 -5 23 -12 20 -38 -3 -27 -11 -35 -58 -58
-69 -34 -80 -34 -80 -3 0 17 14 39 43 65 46 44 43 42 75 34z m3150 -19 c41
-14 90 -25 110 -25 l37 -1 -30 -13 c-17 -7 -37 -20 -45 -28 -44 -42 -126 -72
-104 -37 3 5 9 7 14 4 5 -3 15 3 22 13 7 9 24 23 38 29 23 11 22 11 -11 6 -22
-3 -39 -1 -43 6 -4 6 -19 10 -34 10 l-27 -1 30 -8 c28 -7 27 -8 -13 -9 -36 -1
-47 -7 -78 -41 -20 -22 -41 -40 -47 -40 -6 0 -17 -7 -26 -15 -9 -8 -26 -23
-38 -34 -11 -10 -29 -21 -39 -23 -11 -2 -20 -10 -22 -18 -4 -21 54 -43 79 -29
11 5 19 7 19 5 0 -11 -80 -46 -119 -52 -23 -4 -41 -10 -41 -14 0 -7 -68 -30
-90 -30 -21 0 -4 85 32 157 21 44 51 82 91 119 105 94 202 114 335 69z m-2990
-8 c17 -13 29 -27 25 -30 -3 -4 -1 -7 6 -7 8 0 11 -8 8 -20 -3 -11 0 -20 6
-20 7 0 12 -18 12 -45 0 -40 -5 -49 -42 -84 -24 -21 -50 -54 -58 -72 -8 -19
-14 -28 -15 -21 0 7 -4 11 -9 7 -5 -3 -12 -1 -16 5 -11 17 -27 11 -20 -9 3
-12 0 -21 -10 -25 -9 -3 -14 -2 -11 3 3 5 -5 11 -19 13 -14 3 -25 1 -25 -6 0
-6 -7 -2 -15 8 -8 11 -15 16 -15 10 0 -5 -5 -2 -10 6 -8 13 -10 12 -10 -2 0
-10 -2 -18 -5 -18 -14 0 -105 110 -105 126 0 16 78 74 123 93 25 11 58 31 73
45 50 44 79 65 90 66 5 0 24 -11 42 -23z m1562 8 c7 -8 8 -15 2 -15 -5 0 -15
7 -22 15 -7 8 -8 15 -2 15 5 0 15 -7 22 -15z m-245 -35 c-10 -11 -20 -18 -23
-16 -5 6 21 35 32 36 5 0 1 -9 -9 -20z m140 -13 c10 -8 14 -16 9 -19 -5 -3
-17 3 -26 14 -21 21 -10 24 17 5z m-2325 -13 c0 -6 3 -27 6 -45 l6 -34 -26 44
c-31 52 -31 50 -6 48 11 -1 20 -6 20 -13z m2150 6 c0 -5 -5 -10 -11 -10 -5 0
-7 5 -4 10 3 6 8 10 11 10 2 0 4 -4 4 -10z m151 -11 c1 -5 2 -14 3 -19 0 -6 7
-14 14 -19 10 -6 8 -10 -8 -14 -12 -3 -20 -3 -17 -1 3 3 -1 21 -9 40 -12 29
-12 33 1 28 8 -4 16 -10 16 -15z m-2882 -15 c2 -2 -8 -4 -22 -4 -15 0 -27 -4
-27 -10 0 -5 5 -10 11 -10 6 0 17 -7 25 -15 14 -13 10 -14 -30 -9 -31 5 -46 3
-46 -5 0 -6 6 -11 14 -11 25 0 15 -43 -18 -77 -31 -34 -63 -45 -52 -18 3 8 1
26 -5 39 -9 19 -6 31 16 67 37 60 50 68 93 62 21 -3 39 -7 41 -9z m2813 -56
c-2 -9 -9 -15 -15 -14 -7 2 -9 1 -6 -1 4 -2 5 -14 3 -26 -4 -20 -4 -20 6 2
l10 24 30 -29 c35 -34 36 -41 10 -74 -11 -14 -20 -20 -20 -14 0 5 5 15 12 22
9 9 9 15 0 24 -9 9 -13 7 -18 -5 -5 -13 -10 -14 -25 -6 -13 6 -19 6 -19 -1 0
-5 -4 -10 -10 -10 -5 0 -9 4 -7 9 1 5 -2 11 -8 13 -5 1 -11 -7 -13 -19 -2 -13
-10 -23 -20 -23 -12 0 -13 3 -5 11 6 6 9 17 6 25 -3 7 5 27 17 44 17 24 18 29
5 23 -15 -5 -15 -3 -4 14 6 11 19 20 28 19 9 0 20 9 26 21 9 20 10 21 16 6 3
-10 4 -25 1 -35z m45 6 c-3 -3 -12 -4 -19 -1 -8 3 -5 6 6 6 11 1 17 -2 13 -5z
m1535 -16 c-7 -7 -12 -8 -12 -2 0 14 12 26 19 19 2 -3 -1 -11 -7 -17z m-3752
-9 c8 -12 33 -45 54 -73 59 -77 63 -86 17 -36 -63 69 -89 100 -84 100 3 0 0 7
-7 15 -7 8 -8 15 -3 15 5 0 15 -10 23 -21z m2276 -31 c4 -6 3 -8 -4 -4 -6 3
-13 2 -17 -4 -8 -13 -25 -13 -25 -1 0 5 8 12 18 14 9 3 18 5 19 6 1 0 5 -4 9
-11z m1403 -17 c-13 -11 -31 -20 -39 -20 -13 1 -13 1 0 6 8 3 23 14 34 24 11
11 22 17 24 14 3 -2 -6 -13 -19 -24z m-1622 -16 c8 -9 13 -19 10 -22 -6 -5
-37 21 -37 31 0 10 11 6 27 -9z m-477 -58 c0 -16 -18 3 -23 25 -6 22 -5 22 8
4 8 -11 15 -24 15 -29z m850 32 c0 -5 6 -7 12 -2 15 8 88 12 88 4 0 -4 -5 -13
-10 -21 -6 -10 -10 -11 -10 -2 0 16 -19 15 -52 -2 -25 -13 -28 -13 -33 5 -4
11 -11 16 -17 13 -7 -4 -8 -2 -4 4 9 15 26 16 26 1z m-40 -6 c0 -5 -4 -14 -9
-21 -6 -10 -11 -9 -22 4 -9 12 -10 15 -1 10 6 -4 12 -2 12 3 0 6 5 11 10 11 6
0 10 -3 10 -7z m-360 -13 c0 -5 -5 -10 -11 -10 -5 0 -7 5 -4 10 3 6 8 10 11
10 2 0 4 -4 4 -10z m489 -60 c0 -10 -3 -8 -9 5 -12 27 -12 43 0 25 5 -8 9 -22
9 -30z m-1289 10 c0 -5 -5 -10 -11 -10 -5 0 -7 5 -4 10 3 6 8 10 11 10 2 0 4
-4 4 -10z m434 -16 c3 -8 2 -12 -4 -9 -6 3 -10 10 -10 16 0 14 7 11 14 -7z
m636 -78 c0 -2 -11 -6 -25 -8 -13 -3 -22 -1 -19 3 5 9 44 13 44 5z m103 -3
c-7 -2 -21 -2 -30 0 -10 3 -4 5 12 5 17 0 24 -2 18 -5z m73 -23 c46 -23 77
-60 68 -83 -3 -8 2 -31 10 -52 21 -49 20 -52 -3 -24 -20 24 -20 24 -14 2 3
-12 11 -28 19 -34 8 -6 14 -18 14 -26 0 -12 -3 -11 -17 2 -15 16 -18 15 -36
-7 -16 -19 -18 -20 -11 -3 9 24 6 117 -4 125 -4 3 -13 12 -20 21 -10 14 -10
18 3 23 10 3 13 2 10 -5 -7 -10 11 -39 24 -39 4 0 7 9 8 20 1 13 -2 18 -9 14
-7 -4 -8 -2 -4 5 9 14 -9 33 -60 59 -51 27 -33 28 22 2z m384 16 c0 -3 -4 -8
-10 -11 -5 -3 -10 -1 -10 4 0 6 5 11 10 11 6 0 10 -2 10 -4z m-739 -51 c-40
-19 -76 -35 -80 -34 -10 1 132 69 144 69 5 -1 -23 -16 -64 -35z m131 -103 c8
-9 7 -11 -6 -6 -12 5 -16 18 -14 53 l1 46 4 -40 c3 -22 9 -46 15 -53z m-129
-12 c4 -17 3 -19 -9 -9 -8 6 -14 18 -14 26 0 20 16 8 23 -17z m81 -56 c16 -15
20 -30 16 -49 -1 -5 -3 -15 -4 -22 -5 -33 -15 -20 -13 18 2 41 0 44 -33 56
-33 11 -33 12 -8 12 15 1 34 -6 42 -15z m1525 -21 c2 -2 -11 -2 -30 -2 -19 1
-26 3 -16 6 10 3 14 9 10 16 -4 7 2 5 13 -3 10 -8 21 -16 23 -17z m-1619 -3
c6 -11 8 -20 6 -20 -3 0 -10 9 -16 20 -6 11 -8 20 -6 20 3 0 10 -9 16 -20z
m65 -14 c16 -12 17 -15 4 -28 -15 -15 -39 -13 -39 3 0 6 5 7 10 4 6 -3 15 -3
21 1 8 4 3 12 -12 20 -13 7 -19 13 -13 14 5 0 19 -6 29 -14z m-23 -108 c-4
-17 -2 -20 12 -15 10 4 15 3 11 -4 -4 -5 -15 -7 -25 -4 -12 4 -22 0 -28 -11
-8 -15 -10 -15 -15 0 -4 9 -1 16 4 16 7 0 9 11 7 25 -5 22 -3 23 10 13 13 -11
15 -10 9 12 -5 23 -5 23 7 7 8 -10 11 -27 8 -39z m238 -7 c0 -6 -4 -13 -10
-16 -5 -3 -10 1 -10 9 0 9 5 16 10 16 6 0 10 -4 10 -9z m-3326 -46 c13 -34
-21 -59 -63 -48 -20 5 -31 29 -24 51 7 18 79 16 87 -3z m1445 2 c9 2 30 -8 46
-21 30 -25 30 -25 6 -26 -20 0 -22 -2 -11 -15 11 -13 10 -14 -4 -9 -9 3 -22 1
-30 -5 -21 -18 -30 18 -11 39 22 25 6 29 -31 10 -28 -14 -30 -18 -15 -27 30
-20 4 -24 -28 -5 l-32 19 31 27 c22 18 36 24 47 17 9 -4 23 -7 32 -4z m146
-81 c18 -13 18 -14 -8 -9 -15 3 -27 9 -27 14 0 13 13 11 35 -5z m1872 -28 c18
-7 33 -16 33 -20 0 -4 6 -8 13 -8 26 0 132 -50 135 -64 2 -8 9 -17 17 -20 10
-3 12 0 8 11 -5 13 -2 15 13 9 35 -14 94 -19 94 -8 0 18 -22 25 -31 11 -6 -9
-9 -10 -9 -2 0 6 -17 17 -37 24 -52 16 -58 21 -41 30 8 4 31 2 54 -6 21 -8 47
-14 57 -15 10 0 20 -7 23 -15 4 -9 19 -15 41 -15 19 0 43 -5 54 -10 10 -6 19
-7 19 -2 0 4 34 5 75 1 41 -4 92 -6 112 -4 21 2 71 1 112 -2 65 -5 72 -8 56
-20 -26 -18 -90 -16 -120 3 -22 14 -25 14 -25 1 0 -10 19 -18 60 -26 35 -7 58
-16 54 -22 -8 -13 55 -67 86 -73 14 -3 45 -8 70 -12 46 -7 106 -32 97 -41 -3
-2 -16 1 -29 9 -12 7 -46 13 -75 14 -29 1 -68 11 -90 22 -87 45 -113 56 -118
50 -3 -3 18 -17 47 -32 85 -43 135 -76 116 -76 -10 0 -18 -5 -18 -11 0 -6 10
-9 23 -6 12 3 31 1 42 -3 18 -8 18 -9 -5 -9 -25 -1 -50 -17 -50 -32 0 -3 18
-9 41 -13 35 -6 45 -3 65 18 15 14 20 26 14 29 -6 3 -6 5 1 3 16 -3 20 -48 5
-59 -6 -5 -3 -6 9 -2 32 12 48 11 52 -3 3 -7 -1 -10 -10 -6 -29 11 -26 -15 3
-28 75 -33 -21 -57 -125 -31 -38 9 -79 17 -90 17 -12 1 -20 7 -19 18 1 11 -4
15 -15 11 -9 -4 -5 3 9 15 14 12 21 21 16 22 -5 0 -3 6 3 14 18 22 -6 31 -28
12 -17 -15 -19 -15 -24 -1 -4 8 -4 23 -1 32 5 15 4 16 -5 3 -9 -13 -14 -11
-38 12 -31 31 -24 34 46 17 24 -5 46 -8 48 -5 8 7 -51 34 -64 29 -7 -3 -13 1
-13 7 0 8 -9 10 -26 6 -20 -5 -30 -2 -41 14 -8 11 -20 20 -28 20 -8 0 -13 9
-12 20 1 19 9 24 35 21 6 -1 12 3 12 9 0 5 -6 10 -13 10 -8 0 -23 8 -34 18
-12 10 -37 17 -59 17 -33 0 -39 -3 -37 -20 1 -11 0 -15 -3 -9 -3 7 -21 10 -48
7 -24 -3 -46 -1 -49 4 -4 7 -25 5 -58 -3 -85 -22 -144 -27 -168 -15 -11 7 -21
8 -21 4 1 -4 23 -19 50 -32 41 -20 52 -22 65 -11 20 16 20 -4 0 -24 -18 -18
-19 -26 -2 -26 7 0 18 -9 25 -20 7 -11 21 -20 32 -20 25 0 26 17 1 25 -10 3
-21 15 -24 26 -4 17 -2 19 16 13 19 -6 20 -5 9 9 -12 14 -11 15 12 4 16 -7 20
-13 12 -15 -25 -5 -27 -30 -3 -30 40 0 62 -7 74 -22 7 -9 24 -14 48 -11 28 2
36 -1 33 -11 -3 -7 -16 -12 -29 -11 -13 1 -18 0 -11 -3 17 -8 15 -27 -3 -21
-8 4 -17 2 -20 -2 -6 -11 50 -32 61 -23 4 4 4 1 0 -5 -4 -7 -2 -13 3 -13 6 0
11 -4 11 -8 0 -12 -49 -7 -62 6 -7 7 -28 12 -47 13 -29 0 -32 2 -16 8 11 5 24
6 29 3 5 -3 7 2 3 10 -3 9 0 21 6 27 14 14 6 21 -35 27 -34 6 -34 6 -30 -29 3
-29 0 -36 -18 -42 -12 -4 -27 -2 -32 3 -8 8 -4 9 11 5 12 -3 21 -1 21 6 0 6
-12 13 -27 16 -43 9 -85 35 -119 72 -18 18 -39 33 -47 33 -19 0 -53 14 -92 39
-16 11 -40 20 -51 20 -15 1 -24 9 -28 26 -8 30 -22 33 -29 5 -3 -12 1 -23 9
-28 12 -7 12 -11 -5 -26 -11 -10 -17 -24 -14 -32 3 -8 0 -14 -6 -14 -7 0 -14
7 -17 15 -6 16 -64 48 -64 36 0 -5 -11 -6 -25 -3 -14 2 -25 9 -25 14 0 5 -6 6
-12 1 -23 -14 -37 -12 -31 5 5 11 2 14 -10 9 -11 -4 -14 -2 -11 7 3 7 -8 21
-23 31 -15 10 -36 26 -45 35 -16 17 -15 19 13 30 20 9 33 9 42 2 6 -5 30 -8
52 -6 27 3 35 1 26 -5 -12 -8 -8 -11 15 -16 16 -3 50 -10 75 -16 25 -5 50 -9
55 -8 5 1 16 0 24 -4 27 -10 100 -15 105 -7 2 4 -23 14 -58 23 -34 8 -64 11
-67 6 -3 -4 -12 -4 -19 0 -7 5 -11 13 -8 18 7 11 -40 40 -49 30 -3 -3 4 -10
15 -17 22 -11 28 -30 10 -30 -5 0 -36 12 -67 27 -31 15 -60 26 -64 25 -20 -5
-4 9 30 27 42 23 110 27 159 9z m-2692 -38 c-3 -5 -11 -10 -16 -10 -6 0 -7 5
-4 10 3 6 11 10 16 10 6 0 7 -4 4 -10z m2862 4 c-3 -3 -12 -4 -19 -1 -8 3 -5
6 6 6 11 1 17 -2 13 -5z m-507 -64 c0 -5 -2 -10 -4 -10 -3 0 -8 5 -11 10 -3 6
-1 10 4 10 6 0 11 -4 11 -10z m-16 -19 c3 -4 3 -11 0 -14 -8 -8 -34 3 -34 14
0 11 27 12 34 0z m1246 -31 c0 -5 -15 -10 -34 -10 -19 0 -38 5 -41 10 -4 6 10
10 34 10 23 0 41 -4 41 -10z m-331 -58 c8 -14 4 -17 -22 -16 -18 0 -40 4 -49
8 -10 5 -23 6 -30 4 -15 -5 78 -58 103 -58 12 0 16 -5 13 -15 -5 -12 2 -15 30
-15 38 0 44 -8 24 -28 -9 -9 -7 -12 10 -12 15 0 26 9 32 25 5 14 12 25 15 25
4 0 3 -4 0 -10 -3 -5 -1 -10 4 -10 6 0 11 -4 11 -10 0 -5 -7 -10 -16 -10 -8 0
-12 -4 -9 -10 3 -5 -3 -10 -13 -10 -16 0 -19 -5 -14 -22 5 -20 4 -21 -11 -9
-9 7 -14 17 -11 22 3 5 -4 9 -15 9 -12 0 -21 5 -21 11 0 18 -51 62 -75 64 -35
4 -36 5 -31 14 3 5 -6 12 -22 16 -25 6 -62 36 -62 51 0 3 6 4 13 1 8 -3 38 -2
68 2 60 8 65 7 78 -17z m-4081 -20 c3 -9 -2 -13 -14 -10 -9 1 -19 9 -22 16 -3
9 2 13 14 10 9 -1 19 -9 22 -16z m4497 2 c16 -4 25 -2 25 6 0 7 6 5 16 -5 9
-9 14 -19 11 -22 -10 -10 -93 7 -113 23 -18 15 -17 15 9 10 15 -3 38 -9 52
-12z m-4445 -4 c0 -5 -7 -10 -15 -10 -8 0 -15 5 -15 10 0 6 7 10 15 10 8 0 15
-4 15 -10z m3499 -22 c11 -10 14 -10 18 0 6 15 43 16 43 1 0 -6 -7 -9 -15 -5
-14 5 -20 -5 -16 -27 1 -4 -12 2 -29 14 -16 13 -30 24 -30 26 0 7 17 2 29 -9z
m91 2 c0 -5 -4 -10 -10 -10 -5 0 -10 5 -10 10 0 6 5 10 10 10 6 0 10 -4 10
-10z m-390 -40 c0 -3 25 -22 55 -41 51 -32 67 -49 46 -49 -5 0 -11 3 -13 8 -1
4 -19 19 -39 34 -27 20 -39 24 -48 15 -8 -8 -11 -5 -11 12 0 12 -5 32 -11 44
-10 21 -10 21 5 3 9 -11 16 -23 16 -26z m425 30 c3 -5 1 -10 -4 -10 -6 0 -11
5 -11 10 0 6 2 10 4 10 3 0 8 -4 11 -10z m78 -39 c-2 -6 2 -11 7 -11 6 0 10
-5 10 -11 0 -8 -5 -8 -15 1 -8 7 -13 16 -10 20 3 5 -9 13 -25 19 -17 5 -30 15
-30 21 0 7 13 4 33 -8 17 -10 31 -24 30 -31z m1047 29 c0 -13 -11 -13 -30 0
-12 8 -11 10 8 10 12 0 22 -4 22 -10z m-1143 -20 c14 -11 23 -20 19 -20 -4 0
0 -7 8 -16 22 -22 20 -32 -8 -30 -13 0 -22 6 -19 13 5 11 -7 16 -64 28 -18 4
-35 10 -37 14 -6 9 79 5 97 -4 6 -4 1 3 -13 14 -32 26 -16 27 17 1z m74 -21
c20 -20 20 -23 5 -31 -18 -10 -39 -2 -31 13 4 5 1 9 -4 9 -6 0 -11 7 -11 15 0
21 16 19 41 -6z m870 0 c23 -11 39 -22 37 -25 -8 -7 -82 22 -86 34 -5 17 3 15
49 -9z m-1081 -24 c19 -14 27 -25 19 -25 -9 0 -26 11 -39 25 -13 14 -21 25
-19 25 3 0 20 -11 39 -25z m310 -8 c13 -5 13 -6 -1 -6 -9 -1 -24 9 -35 22 -19
22 -19 22 1 6 11 -9 27 -19 35 -22z m924 -22 c22 -8 36 -18 33 -22 -11 -11
-88 20 -98 39 -9 16 -8 18 8 9 10 -6 36 -17 57 -26z m102 20 c20 -19 4 -20
-22 0 -12 9 -14 14 -6 15 7 0 20 -7 28 -15z m-1356 -16 c0 -6 -4 -7 -10 -4 -5
3 -10 11 -10 16 0 6 5 7 10 4 6 -3 10 -11 10 -16z m-55 -7 c-3 -3 -11 0 -18 7
-9 10 -8 11 6 5 10 -3 15 -9 12 -12z m1005 2 c0 -8 -4 -12 -10 -9 -5 3 -10 10
-10 16 0 5 5 9 10 9 6 0 10 -7 10 -16z m184 7 c5 -8 -84 -3 -93 5 -2 2 16 4
42 4 25 0 48 -4 51 -9z m-1024 -5 c0 -3 -4 -8 -10 -11 -5 -3 -10 -1 -10 4 0 6
5 11 10 11 6 0 10 -2 10 -4z m1410 -6 c8 -5 11 -12 7 -16 -4 -4 -15 0 -24 9
-18 18 -8 23 17 7z m-1293 -6 c-3 -3 -12 -4 -19 -1 -8 3 -5 6 6 6 11 1 17 -2
13 -5z m262 -18 c13 -9 -33 -50 -72 -65 -22 -9 -25 -8 -20 7 3 9 11 24 17 32
6 8 -1 6 -14 -5 -14 -11 -22 -16 -18 -11 4 5 3 16 -4 23 -9 11 -9 16 2 23 15
9 91 6 109 -4z m924 -2 c42 -14 63 -34 37 -34 -5 0 -10 4 -10 9 0 5 -20 14
-45 20 -25 6 -45 13 -45 16 0 8 14 6 63 -11z m-88 -4 c-3 -5 -10 -10 -16 -10
-5 0 -9 5 -9 10 0 6 7 10 16 10 8 0 12 -4 9 -10z m-1198 -21 c45 -25 67 -44
39 -33 -15 6 -17 4 -11 -6 5 -9 4 -11 -4 -6 -6 4 -9 11 -6 16 7 11 -24 22 -38
13 -7 -3 -8 -2 -4 2 4 5 -3 15 -15 22 -13 7 -18 12 -11 13 7 0 29 -9 50 -21z
m-177 -49 c0 -5 -4 -10 -10 -10 -5 0 -10 5 -10 10 0 6 5 10 10 10 6 0 10 -4
10 -10z m420 0 c0 -5 -7 -7 -15 -4 -8 4 -15 8 -15 10 0 2 7 4 15 4 8 0 15 -4
15 -10z m-390 -10 c0 -5 -2 -10 -4 -10 -3 0 -8 5 -11 10 -3 6 -1 10 4 10 6 0
11 -4 11 -10z m573 3 c-7 -2 -21 -2 -30 0 -10 3 -4 5 12 5 17 0 24 -2 18 -5z"/>
<path d="M2505 3090 c3 -5 8 -10 11 -10 2 0 4 5 4 10 0 6 -5 10 -11 10 -5 0
-7 -4 -4 -10z"/>
<path d="M1745 2929 c-11 -17 1 -21 15 -4 8 9 8 15 2 15 -6 0 -14 -5 -17 -11z"/>
<path d="M3177 3059 c7 -7 15 -10 18 -7 3 3 -2 9 -12 12 -14 6 -15 5 -6 -5z"/>
<path d="M3400 2930 c-8 -5 -12 -11 -9 -14 3 -3 14 1 25 9 21 16 8 20 -16 5z"/>
<path d="M1484 1529 c-3 -6 -1 -22 4 -37 6 -15 13 -35 16 -45 3 -10 11 -15 16
-12 7 4 7 11 2 18 -16 21 -23 65 -10 69 8 3 6 7 -5 11 -9 3 -19 2 -23 -4z"/>
<path d="M1530 1479 c7 -11 14 -19 16 -16 7 7 -7 37 -17 37 -6 0 -5 -9 1 -21z"/>
<path d="M1470 1425 c0 -8 4 -15 10 -15 5 0 7 7 4 15 -4 8 -8 15 -10 15 -2 0
-4 -7 -4 -15z"/>
<path d="M1540 1412 c6 -13 14 -21 18 -18 3 4 -2 14 -12 24 -18 16 -18 16 -6
-6z"/>
<path d="M1490 1393 c0 -4 5 -15 10 -23 8 -13 10 -13 10 2 0 9 -4 20 -10 23
-5 3 -10 3 -10 -2z"/>
<path d="M1762 1989 c-7 -10 -8 -19 -3 -19 13 0 33 28 23 33 -4 3 -13 -3 -20
-14z"/>
<path d="M3075 2010 c3 -5 8 -10 11 -10 2 0 4 5 4 10 0 6 -5 10 -11 10 -5 0
-7 -4 -4 -10z"/>
<path d="M2917 1946 c-21 -16 -22 -26 -3 -26 8 0 17 7 20 16 9 23 4 25 -17 10z"/>
<path d="M2985 1949 c-7 -11 22 -39 40 -38 6 0 19 4 29 8 15 6 16 10 7 15 -7
5 -18 3 -24 -3 -6 -6 -16 -11 -21 -11 -6 0 -5 4 3 9 16 10 6 31 -14 31 -8 0
-17 -5 -20 -11z"/>
<path d="M2433 1445 c-16 -18 -16 -25 0 -25 7 0 13 9 14 20 2 23 2 24 -14 5z"/>
<path d="M2750 1160 c0 -5 5 -10 10 -10 6 0 10 5 10 10 0 6 -4 10 -10 10 -5 0
-10 -4 -10 -10z"/>
<path d="M1880 1840 c0 -5 7 -10 15 -10 8 0 15 5 15 10 0 6 -7 10 -15 10 -8 0
-15 -4 -15 -10z"/>
<path d="M648 1643 c7 -3 16 -2 19 1 4 3 -2 6 -13 5 -11 0 -14 -3 -6 -6z"/>
<path d="M755 1531 c-3 -5 -2 -12 3 -15 5 -3 9 1 9 9 0 17 -3 19 -12 6z"/>
<path d="M1970 1491 c0 -5 7 -11 14 -14 10 -4 13 -1 9 9 -6 15 -23 19 -23 5z"/>
<path d="M4975 1180 c3 -5 15 -10 26 -10 11 0 17 5 14 10 -3 6 -15 10 -26 10
-11 0 -17 -4 -14 -10z"/>
<path d="M760 1340 c0 -13 11 -13 30 0 12 8 11 10 -7 10 -13 0 -23 -4 -23 -10z"/>
<path d="M765 1260 c-3 -5 -1 -10 4 -10 6 0 11 5 11 10 0 6 -2 10 -4 10 -3 0
-8 -4 -11 -10z"/>
<path d="M3631 1264 c0 -11 3 -14 6 -6 3 7 2 16 -1 19 -3 4 -6 -2 -5 -13z"/>
<path d="M3673 1244 c-15 -16 -16 -24 -4 -24 8 0 24 30 19 35 -2 2 -9 -3 -15
-11z"/>
<path d="M3948 383 c7 -3 16 -2 19 1 4 3 -2 6 -13 5 -11 0 -14 -3 -6 -6z"/>
<path d="M4370 381 c0 -10 30 -24 37 -17 3 3 2 9 -2 15 -8 13 -35 15 -35 2z"/>
<path d="M4430 380 c0 -5 5 -10 10 -10 6 0 10 5 10 10 0 6 -4 10 -10 10 -5 0
-10 -4 -10 -10z"/>
<path d="M3810 370 c0 -5 5 -10 10 -10 6 0 10 5 10 10 0 6 -4 10 -10 10 -5 0
-10 -4 -10 -10z"/>
<path d="M4075 350 c3 -5 10 -10 16 -10 5 0 9 5 9 10 0 6 -7 10 -16 10 -8 0
-12 -4 -9 -10z"/>
<path d="M4140 351 c0 -5 7 -14 15 -21 13 -10 15 -9 15 9 0 12 -6 21 -15 21
-8 0 -15 -4 -15 -9z"/>
<path d="M4275 350 c3 -5 16 -10 28 -10 18 0 19 2 7 10 -20 13 -43 13 -35 0z"/>
<path d="M4850 96 c0 -2 7 -7 16 -10 8 -3 12 -2 9 4 -6 10 -25 14 -25 6z"/>
<path d="M4434 65 c-10 -8 -14 -14 -9 -14 6 0 19 6 29 14 11 8 15 15 10 15 -6
0 -19 -7 -30 -15z"/>
<path d="M3333 3430 c-3 -10 -14 -22 -24 -25 -10 -4 -19 -11 -19 -17 0 -5 7
-8 14 -5 9 4 17 -2 21 -13 4 -12 12 -17 21 -13 11 4 12 9 4 18 -8 10 -8 15 1
20 8 6 7 10 -2 16 -11 7 -10 9 4 9 21 0 22 16 1 24 -10 4 -18 -1 -21 -14z"/>
<path d="M3032 3400 c-18 -10 -29 -21 -23 -24 5 -4 12 -2 15 3 4 5 19 -4 35
-20 32 -31 51 -37 51 -15 0 8 11 14 26 14 14 0 30 4 36 10 7 7 -2 9 -32 5 -40
-6 -42 -5 -38 18 4 31 -24 34 -70 9z"/>
<path d="M2965 3390 c-3 -6 1 -7 9 -4 18 7 21 14 7 14 -6 0 -13 -4 -16 -10z"/>
<path d="M3415 3341 c-3 -5 -1 -12 5 -16 5 -3 10 -2 10 4 0 5 8 12 18 14 13 4
12 5 -5 6 -12 0 -24 -3 -28 -8z"/>
<path d="M2370 3331 c0 -5 9 -11 20 -14 24 -6 27 8 4 17 -21 8 -24 8 -24 -3z"/>
<path d="M2920 3330 c0 -6 7 -10 15 -10 8 0 15 2 15 4 0 2 -7 6 -15 10 -8 3
-15 1 -15 -4z"/>
<path d="M3515 3300 c3 -5 8 -10 11 -10 2 0 4 5 4 10 0 6 -5 10 -11 10 -5 0
-7 -4 -4 -10z"/>
<path d="M3160 3280 c13 -24 35 -27 26 -4 -3 9 -6 18 -6 20 0 2 -7 4 -15 4
-13 0 -14 -4 -5 -20z"/>
<path d="M3616 3249 c-15 -18 -15 -23 -5 -30 8 -5 15 -5 17 0 2 5 20 0 41 -10
48 -23 96 -19 96 7 0 11 -6 20 -12 20 -26 3 -28 6 -8 14 17 7 15 9 -13 9 -20
1 -35 -5 -38 -14 -7 -17 -40 -20 -49 -5 -3 6 4 10 17 11 22 0 22 1 3 9 -28 12
-29 12 -49 -11z"/>
<path d="M5153 3239 c-29 -5 -77 -12 -105 -17 l-53 -7 2 -53 c4 -100 41 -180
110 -241 97 -85 93 -79 93 -153 0 -64 2 -69 38 -105 37 -37 37 -37 40 -13 2
14 8 29 13 34 5 6 9 20 9 31 0 28 19 43 100 83 61 30 67 37 94 95 16 34 33 64
36 67 4 3 14 19 23 37 9 17 22 37 29 45 7 8 24 27 38 43 l25 29 -27 -17 c-16
-10 -28 -13 -28 -7 0 5 -7 10 -16 10 -8 0 -13 4 -9 9 3 5 -10 22 -30 37 -19
14 -35 33 -35 40 0 17 -26 23 -120 28 -41 3 -93 12 -115 20 -45 17 -41 17
-112 5z"/>
<path d="M3841 3222 c-1 -9 -11 -12 -28 -10 -32 4 -43 -18 -14 -27 24 -7 56
18 48 38 -4 9 -6 9 -6 -1z"/>
<path d="M2870 3200 c0 -5 -8 -10 -17 -10 -14 0 -14 -3 -5 -12 10 -10 14 -10
21 0 4 7 15 10 24 6 24 -9 21 3 -3 16 -14 7 -20 7 -20 0z"/>
<path d="M3870 3160 c-12 -7 -12 -10 3 -16 21 -8 29 -3 19 13 -5 8 -13 9 -22
3z"/>
<path d="M3795 3140 c4 -6 -5 -10 -19 -10 -16 0 -26 -6 -26 -15 0 -8 9 -15 20
-15 24 0 26 -13 5 -30 -12 -10 -15 -10 -15 0 0 8 -3 10 -6 7 -4 -4 1 -18 10
-31 19 -30 21 -45 4 -28 -18 18 -27 15 -21 -7 2 -10 16 -24 29 -30 13 -6 24
-15 24 -20 0 -5 16 -26 35 -47 35 -37 44 -67 25 -79 -6 -4 -7 -11 -4 -17 4 -6
-1 -8 -14 -4 -30 10 -39 -14 -12 -34 17 -12 32 -15 60 -10 30 6 42 3 65 -17
15 -13 30 -21 34 -18 3 4 -10 19 -29 35 -34 28 -34 28 -7 23 26 -5 39 11 15
19 -21 7 4 30 28 25 13 -2 25 1 28 8 2 7 -8 11 -30 10 -19 0 -34 3 -34 7 0 4
-11 10 -25 14 -14 3 -25 11 -25 16 0 6 7 8 15 5 8 -4 17 -2 21 4 4 6 11 6 20
-2 16 -13 19 2 4 17 -6 6 -13 21 -15 34 -5 26 -25 52 -25 32 0 -7 -4 -12 -10
-12 -5 0 -10 7 -10 15 0 9 -9 15 -22 15 -19 0 -20 2 -8 10 9 6 11 10 3 10 -7
0 -10 7 -6 17 5 12 2 15 -10 10 -20 -7 -22 4 -5 21 9 9 8 12 -4 12 -11 0 -15
6 -11 21 7 24 -17 45 -29 26 -5 -8 -8 -6 -8 6 0 9 -5 17 -11 17 -5 0 -7 -4 -4
-10z m35 -101 c0 -6 -4 -7 -10 -4 -5 3 -10 11 -10 16 0 6 5 7 10 4 6 -3 10
-11 10 -16z m56 -74 c1 0 5 -11 9 -24 5 -17 4 -21 -5 -16 -9 5 -10 1 -5 -16 4
-13 4 -21 0 -16 -5 4 -9 17 -10 30 -2 17 -8 21 -26 19 -19 -1 -21 0 -9 8 13 8
12 11 -5 25 -11 9 -14 14 -7 10 6 -3 12 -1 12 6 0 7 9 5 23 -7 12 -10 23 -19
23 -19z m39 -25 c3 -5 1 -10 -4 -10 -6 0 -11 5 -11 10 0 6 2 10 4 10 3 0 8 -4
11 -10z"/>
<path d="M3677 3113 c-13 -3 -16 -10 -11 -25 5 -17 3 -20 -11 -14 -15 5 -16 4
-6 -8 7 -8 10 -19 7 -24 -3 -6 4 -12 15 -15 15 -4 20 -11 15 -23 -5 -14 -4
-15 8 -5 8 7 20 10 26 6 5 -3 10 1 10 9 0 8 -8 17 -18 20 -18 6 -26 46 -9 46
5 0 4 6 -2 13 -6 8 -8 17 -4 20 3 4 4 6 2 6 -2 -1 -12 -3 -22 -6z"/>
<path d="M5940 3103 c-38 -42 -48 -65 -40 -97 l7 -33 -51 3 c-28 2 -44 1 -34
-2 18 -6 31 -31 22 -45 -7 -12 10 -11 40 2 21 10 29 8 55 -12 16 -13 28 -30
26 -36 -5 -15 4 -16 25 -3 12 8 9 14 -18 36 l-33 26 31 31 c25 25 30 39 30 77
0 64 -27 88 -60 53z"/>
<path d="M3997 3013 c-4 -3 -7 -15 -7 -26 0 -25 13 -14 17 13 3 21 1 24 -10
13z"/>
<path d="M4100 2921 c0 -6 5 -13 10 -16 6 -3 10 1 10 9 0 9 -4 16 -10 16 -5 0
-10 -4 -10 -9z"/>
<path d="M4153 2923 c-19 -7 -16 -16 10 -32 20 -13 21 -13 9 2 -8 9 -11 21 -7
27 7 11 6 11 -12 3z"/>
<path d="M4190 2920 c8 -5 22 -9 30 -9 10 0 8 3 -5 9 -27 12 -43 12 -25 0z"/>
<path d="M4080 2860 c6 -11 15 -20 20 -20 6 0 5 9 -2 20 -7 11 -16 20 -21 20
-4 0 -3 -9 3 -20z"/>
<path d="M3540 2860 c0 -5 5 -10 10 -10 6 0 10 5 10 10 0 6 -4 10 -10 10 -5 0
-10 -4 -10 -10z"/>
<path d="M4257 2853 c-4 -3 -7 -13 -7 -22 1 -14 2 -14 11 1 5 10 17 15 27 12
14 -5 15 -4 2 5 -18 13 -24 13 -33 4z"/>
<path d="M4155 2840 c-3 -5 2 -10 12 -10 10 0 23 -11 30 -25 6 -14 8 -25 3
-25 -12 0 -31 26 -23 33 3 4 -4 7 -17 7 -13 0 -21 -3 -17 -6 3 -4 -3 -14 -15
-24 -15 -11 -18 -19 -10 -24 7 -4 12 -5 12 -2 0 3 9 -3 20 -14 11 -11 20 -24
20 -30 0 -16 54 -89 67 -90 6 0 15 -5 19 -12 5 -8 2 -9 -9 -5 -18 7 -24 -8 -7
-18 6 -3 10 -11 10 -18 0 -8 -3 -8 -11 0 -6 6 -18 9 -25 6 -8 -3 -14 0 -14 6
0 6 -14 11 -32 11 -27 0 -30 -2 -16 -12 9 -7 18 -22 20 -33 4 -25 34 -27 31
-2 -1 12 4 17 14 13 8 -3 18 -6 22 -6 4 0 7 -18 8 -40 2 -31 -2 -40 -14 -40
-14 0 -14 -2 3 -14 15 -12 17 -17 7 -27 -23 -24 -16 -38 12 -26 17 8 24 18 21
30 -5 22 -1 22 37 -5 17 -12 27 -17 24 -11 -4 7 -3 14 3 18 5 3 10 1 10 -5 0
-6 5 -8 10 -5 20 12 9 -24 -11 -39 -18 -12 -21 -21 -16 -51 3 -21 2 -33 -4
-30 -5 4 -9 2 -9 -2 0 -5 14 -17 30 -26 36 -21 37 -28 9 -53 -12 -10 -25 -29
-30 -41 -5 -13 -17 -23 -28 -23 -23 0 -40 -26 -45 -68 -2 -16 -6 -34 -10 -41
-4 -6 -2 -11 3 -11 6 0 11 -6 11 -14 0 -9 7 -12 21 -9 16 4 20 2 17 -8 -3 -8
2 -20 9 -27 15 -16 1 -42 -22 -42 -6 0 -23 -10 -36 -22 -20 -18 -21 -20 -4
-13 11 4 34 11 50 15 17 4 27 8 23 9 -9 1 23 41 33 41 4 0 7 -12 7 -26 0 -18
-3 -22 -9 -13 -14 23 -20 3 -8 -24 10 -22 14 -24 40 -15 16 5 29 14 29 19 0 6
-8 5 -19 -1 -25 -13 -42 -13 -19 0 10 7 14 18 11 32 -3 13 -2 20 2 16 5 -5 16
6 26 22 11 17 23 30 29 30 5 0 10 7 10 15 0 18 -17 20 -23 3 -2 -7 -4 -1 -4
14 0 18 4 25 13 21 9 -3 11 2 7 16 -3 12 -14 21 -24 21 -12 0 -19 7 -19 20 0
10 -6 25 -14 32 -9 9 -11 21 -5 40 12 43 20 52 31 37 6 -9 7 -5 2 13 -3 17 0
35 11 52 16 25 16 26 0 26 -11 0 -15 5 -12 15 4 8 -4 22 -17 33 -20 15 -22 21
-11 35 6 9 15 14 19 10 4 -4 6 11 5 35 -3 47 8 66 22 39 10 -18 44 -23 53 -8
3 4 -3 16 -13 25 -11 10 -19 31 -19 51 0 18 -4 41 -9 50 -9 16 -11 16 -26 0
-16 -15 -17 -15 -15 6 3 18 -3 24 -29 30 -36 7 -44 -6 -16 -26 23 -17 10 -47
-19 -43 -23 3 -34 47 -14 60 6 4 1 6 -11 5 -12 0 -19 -5 -16 -10 3 -5 -5 -6
-18 -2 -33 10 -36 15 -19 26 13 8 13 11 -3 23 -10 8 -17 18 -16 22 1 5 0 12
-1 17 -7 21 -4 67 5 67 6 0 2 5 -7 11 -10 5 -18 16 -18 23 0 23 -53 36 -65 16z
m80 -180 c3 -5 1 -10 -4 -10 -6 0 -11 5 -11 10 0 6 2 10 4 10 3 0 8 -4 11 -10z
m185 -81 c13 -9 13 -10 -2 -6 -9 3 -19 1 -21 -6 -2 -7 -8 -9 -12 -5 -8 7 2 28
13 28 4 0 14 -5 22 -11z m-105 -9 c3 -6 -1 -7 -9 -4 -18 7 -21 14 -7 14 6 0
13 -4 16 -10z m13 -85 c-3 -3 -9 2 -12 12 -6 14 -5 15 5 6 7 -7 10 -15 7 -18z
m72 -195 c0 -5 -4 -10 -10 -10 -5 0 -10 5 -10 10 0 6 5 10 10 10 6 0 10 -4 10
-10z m-23 -149 c-1 -13 -9 -18 -26 -18 l-24 0 22 11 c12 7 18 15 15 19 -4 4
-2 7 4 7 6 0 10 -8 9 -19z"/>
<path d="M4035 2830 c-3 -5 -1 -10 4 -10 6 0 11 5 11 10 0 6 -2 10 -4 10 -3 0
-8 -4 -11 -10z"/>
<path d="M4355 2750 c3 -5 8 -10 11 -10 2 0 4 5 4 10 0 6 -5 10 -11 10 -5 0
-7 -4 -4 -10z"/>
<path d="M4240 2741 c0 -5 6 -14 14 -20 10 -9 15 -8 19 3 3 8 3 17 0 20 -9 9
-33 7 -33 -3z"/>
<path d="M4110 2706 c0 -2 9 -6 20 -9 11 -3 18 -1 14 4 -5 9 -34 13 -34 5z"/>
<path d="M4280 2681 c0 -5 5 -13 10 -16 6 -3 10 -2 10 4 0 5 -4 13 -10 16 -5
3 -10 2 -10 -4z"/>
<path d="M4145 2650 c3 -5 8 -10 11 -10 2 0 4 5 4 10 0 6 -5 10 -11 10 -5 0
-7 -4 -4 -10z"/>
<path d="M4173 2632 c1 -12 6 -18 15 -15 7 3 10 9 5 12 -4 3 -11 10 -15 15 -4
4 -6 -1 -5 -12z"/>
<path d="M4080 2616 c0 -9 7 -16 16 -16 9 0 14 5 12 12 -6 18 -28 21 -28 4z"/>
<path d="M5450 2621 c0 -13 -49 -20 -54 -7 -3 6 -4 2 -3 -9 1 -13 -5 -20 -18
-22 -11 -1 -14 0 -7 3 23 11 12 24 -15 18 -41 -10 -44 -13 -32 -36 10 -19 9
-20 -15 -16 -21 4 -24 3 -15 -9 7 -7 9 -17 5 -20 -4 -4 -11 -1 -16 7 -7 11
-10 6 -10 -17 0 -18 4 -33 9 -33 4 0 8 -18 8 -40 0 -22 -4 -43 -8 -46 -5 -3
-9 -13 -9 -22 1 -17 59 90 64 118 2 9 14 15 29 15 25 1 26 0 10 -17 -16 -18
-16 -18 13 -3 38 20 47 19 40 -3 -5 -16 -1 -18 29 -16 19 2 35 -1 35 -7 0 -6
5 -7 12 -3 6 4 8 3 4 -4 -3 -5 -1 -12 6 -14 7 -3 5 -7 -6 -11 -10 -4 -15 -3
-11 3 11 18 -6 10 -51 -24 -38 -29 -42 -35 -22 -34 57 4 79 -2 88 -24 5 -13 9
-19 9 -14 1 5 8 2 17 -5 22 -18 44 -20 37 -3 -3 8 -1 14 5 14 6 0 13 -6 15
-12 4 -8 6 -7 6 4 1 9 -11 26 -25 37 -18 14 -22 21 -11 21 8 0 17 -6 20 -12 3
-9 10 -8 23 6 15 14 15 18 3 13 -12 -4 -14 1 -11 23 3 22 0 28 -14 27 -10 -1
-20 6 -22 16 -2 12 3 17 17 17 26 0 26 -3 -3 60 -18 38 -34 56 -62 70 -41 21
-64 25 -64 11z m38 -19 c6 -18 -15 -14 -22 4 -4 10 -1 14 6 12 6 -2 14 -10 16
-16z m-56 -24 c-6 -6 -15 -8 -19 -4 -4 4 -1 11 7 16 8 5 17 7 19 4 3 -2 -1
-10 -7 -16z m-46 -36 c-18 -16 -18 -16 -6 6 6 13 14 21 18 18 3 -4 -2 -14 -12
-24z m64 4 c0 -3 -4 -8 -10 -11 -5 -3 -10 -1 -10 4 0 6 5 11 10 11 6 0 10 -2
10 -4z m20 -20 c0 -3 -4 -8 -10 -11 -5 -3 -10 -1 -10 4 0 6 5 11 10 11 6 0 10
-2 10 -4z m-162 -34 c2 -7 -2 -10 -12 -6 -9 3 -16 11 -16 16 0 13 23 5 28 -10z
m-7 -49 c-12 -20 -14 -14 -5 12 4 9 9 14 11 11 3 -2 0 -13 -6 -23z"/>
<path d="M3840 2591 c0 -5 7 -11 14 -14 10 -4 13 -1 9 9 -6 15 -23 19 -23 5z"/>
<path d="M4127 2549 c7 -7 15 -10 18 -7 3 3 -2 9 -12 12 -14 6 -15 5 -6 -5z"/>
<path d="M5755 2508 c-54 -17 -75 -31 -75 -50 0 -10 7 -18 15 -18 12 0 14 -10
9 -53 -4 -34 -2 -62 6 -76 9 -17 9 -26 0 -37 -7 -7 -16 -11 -21 -8 -5 3 -9 -1
-9 -8 0 -8 28 -27 63 -44 57 -29 64 -30 95 -17 17 7 32 18 32 24 0 6 -11 43
-24 82 -13 40 -29 101 -36 137 -6 36 -15 68 -18 71 -4 4 -20 2 -37 -3z"/>
<path d="M4006 2414 c-8 -22 -4 -25 11 -9 7 8 9 16 4 19 -5 3 -12 -1 -15 -10z"/>
<path d="M4425 2390 c3 -5 8 -10 11 -10 2 0 4 5 4 10 0 6 -5 10 -11 10 -5 0
-7 -4 -4 -10z"/>
<path d="M4486 2372 c-3 -6 1 -15 9 -22 8 -7 12 -16 9 -22 -3 -5 -11 -5 -19 2
-9 8 -17 4 -29 -14 -10 -15 -12 -27 -6 -31 6 -3 10 -1 10 5 0 6 4 9 10 5 13
-8 50 26 50 46 0 20 -26 44 -34 31z"/>
<path d="M5261 2334 c0 -11 3 -14 6 -6 3 7 2 16 -1 19 -3 4 -6 -2 -5 -13z"/>
<path d="M3960 2329 c0 -10 50 -18 55 -9 3 4 -9 10 -25 12 -17 3 -30 1 -30 -3z"/>
<path d="M4048 2295 c9 -11 27 -32 40 -46 23 -26 23 -28 8 -58 -9 -17 -13 -31
-9 -31 5 0 16 18 25 40 17 41 45 57 35 20 -3 -11 -1 -18 4 -14 5 3 9 11 9 19
0 7 12 16 28 19 15 2 3 3 -25 2 -62 -4 -97 15 -91 48 3 16 -1 21 -18 21 -21 0
-22 -1 -6 -20z"/>
<path d="M5465 2310 c-3 -6 -2 -10 4 -10 5 0 11 -10 13 -22 3 -22 4 -22 9 -3
6 22 -16 52 -26 35z"/>
<path d="M5530 2290 c-12 -7 -10 -9 8 -7 12 0 22 5 22 9 0 11 -12 10 -30 -2z"/>
<path d="M5582 2280 c0 -14 2 -19 5 -12 2 6 2 18 0 25 -3 6 -5 1 -5 -13z"/>
<path d="M3851 2274 c0 -11 3 -14 6 -6 3 7 2 16 -1 19 -3 4 -6 -2 -5 -13z"/>
<path d="M3913 2255 c1 -16 8 -36 15 -43 6 -7 12 -20 12 -28 0 -8 4 -14 10
-14 5 0 4 14 -4 33 -39 91 -36 86 -33 52z"/>
<path d="M5440 2267 c0 -3 12 -12 26 -22 15 -9 23 -12 20 -6 -7 11 -46 35 -46
28z"/>
<path d="M4286 2201 c-4 -7 -5 -15 -2 -18 9 -9 19 4 14 18 -4 11 -6 11 -12 0z"/>
<path d="M5126 2195 c-11 -8 -15 -15 -9 -15 6 0 16 7 23 15 16 19 11 19 -14 0z"/>
<path d="M5149 2183 c-13 -17 -13 -17 6 -3 11 8 22 16 24 17 2 2 0 3 -6 3 -6
0 -17 -8 -24 -17z"/>
<path d="M4230 2155 c-14 -8 -20 -14 -14 -15 5 0 19 7 30 15 24 18 16 19 -16
0z"/>
<path d="M4022 2141 c-9 -5 -4 -8 16 -7 17 1 28 4 25 9 -6 9 -25 9 -41 -2z"/>
<path d="M4174 2141 c-5 -5 -31 -16 -59 -26 -27 -10 -57 -24 -66 -32 -22 -19
-28 -17 -63 20 -17 18 -24 24 -15 13 25 -32 41 -65 35 -75 -3 -5 -22 -12 -41
-15 -19 -4 -64 -28 -98 -55 -80 -60 -92 -65 -123 -45 -22 15 -36 43 -14 29 6
-3 18 1 27 10 15 16 14 18 -13 41 -22 18 -25 23 -11 24 9 0 17 -5 17 -11 0 -5
5 -7 10 -4 16 10 3 22 -30 28 -55 11 -107 -57 -62 -82 16 -9 16 -10 0 -16 -10
-4 -18 -12 -18 -17 0 -6 7 -8 15 -4 18 6 19 -7 4 -35 -8 -16 -7 -25 7 -40 17
-19 18 -18 43 10 14 16 45 34 67 40 23 6 47 18 54 26 23 28 87 75 106 78 29 5
77 33 99 57 23 26 50 38 119 54 39 10 45 14 34 24 -8 6 -19 8 -24 3z"/>
<path d="M5098 2143 c-22 -5 -24 -20 -3 -20 8 0 16 6 19 14 3 7 4 12 3 12 -1
-1 -10 -3 -19 -6z"/>
<path d="M5270 2100 c-9 -6 -10 -10 -3 -10 6 0 15 5 18 10 8 12 4 12 -15 0z"/>
<path d="M3612 2078 c-17 -17 -15 -31 3 -24 8 3 15 1 15 -4 0 -6 -4 -11 -10
-11 -5 -1 -14 -2 -19 -3 -14 -2 -26 -16 -13 -16 16 0 81 34 82 43 0 4 -9 7
-19 7 -11 0 -21 5 -23 10 -2 7 -8 6 -16 -2z"/>
<path d="M3430 2061 c0 -10 19 -25 25 -20 1 2 -3 10 -11 17 -8 7 -14 8 -14 3z"/>
<path d="M3535 2030 c-3 -5 -1 -10 4 -10 6 0 11 5 11 10 0 6 -2 10 -4 10 -3 0
-8 -4 -11 -10z"/>
<path d="M4440 1945 c0 -8 2 -15 4 -15 2 0 6 7 10 15 3 8 1 15 -4 15 -6 0 -10
-7 -10 -15z"/>
<path d="M4090 1800 c0 -5 5 -10 10 -10 6 0 10 5 10 10 0 6 -4 10 -10 10 -5 0
-10 -4 -10 -10z"/>
<path d="M4035 1770 c-3 -5 -1 -10 4 -10 6 0 11 5 11 10 0 6 -2 10 -4 10 -3 0
-8 -4 -11 -10z"/>
<path d="M4000 1729 c0 -15 41 -57 61 -62 21 -6 21 -6 -1 15 l-23 21 54 18 54
17 -72 -1 c-40 -1 -73 -5 -73 -8z"/>
<path d="M5340 1640 c-13 -8 -12 -10 3 -10 9 0 17 5 17 10 0 12 -1 12 -20 0z"/>
<path d="M4350 1627 c0 -5 -7 -7 -15 -3 -12 4 -14 -2 -9 -31 7 -46 23 -87 30
-80 3 3 14 -2 24 -11 18 -15 18 -16 2 -29 -15 -13 -14 -14 11 -8 19 4 26 2 22
-5 -3 -5 1 -10 10 -10 11 0 15 5 11 15 -5 14 6 19 42 18 7 -1 11 4 9 11 -3 6
4 21 15 33 20 21 20 22 2 47 -20 26 -42 36 -86 36 -31 0 -38 16 -10 23 9 2 0
4 -20 3 -21 0 -38 -4 -38 -9z"/>
<path d="M4205 1409 c-17 -8 -15 -8 8 -4 15 3 27 1 27 -5 0 -5 -5 -10 -12 -10
-6 0 -9 -3 -5 -6 9 -9 45 5 51 21 6 17 -36 20 -69 4z"/>
<path d="M4445 1389 c-11 -12 -14 -19 -7 -15 19 11 14 -9 -8 -29 -25 -22 -25
-33 -3 -37 19 -3 80 58 69 69 -3 3 -1 12 5 20 9 9 8 13 0 13 -6 0 -15 -8 -18
-17 -6 -15 -7 -15 -13 1 -5 16 -8 15 -25 -5z"/>
<path d="M4220 1245 c-7 -9 -8 -15 -2 -15 5 0 12 7 16 15 3 8 4 15 2 15 -2 0
-9 -7 -16 -15z"/>
<path d="M4175 1240 c-3 -5 -1 -10 4 -10 6 0 11 5 11 10 0 6 -2 10 -4 10 -3 0
-8 -4 -11 -10z"/>
<path d="M4170 1200 c0 -5 5 -10 10 -10 6 0 10 5 10 10 0 6 -4 10 -10 10 -5 0
-10 -4 -10 -10z"/>
<path d="M4130 1184 c0 -14 3 -14 15 -4 8 7 15 14 15 16 0 2 -7 4 -15 4 -8 0
-15 -7 -15 -16z"/>
<path d="M4279 1173 l-24 -28 28 24 c25 23 32 31 24 31 -2 0 -14 -12 -28 -27z"/>
<path d="M4330 1150 c0 -5 5 -10 10 -10 6 0 10 5 10 10 0 6 -4 10 -10 10 -5 0
-10 -4 -10 -10z"/>
<path d="M4230 1119 c0 -5 5 -7 10 -4 6 3 10 8 10 11 0 2 -4 4 -10 4 -5 0 -10
-5 -10 -11z"/>
<path d="M4456 1043 c-6 -14 -5 -15 5 -6 7 7 10 15 7 18 -3 3 -9 -2 -12 -12z"/>
<path d="M4251 101 c-8 -5 -9 -11 -3 -15 13 -8 42 3 42 15 0 11 -21 11 -39 0z"/>
</g>
</svg>
